<mxfile host="app.diagrams.net" agent="Mozilla/5.0 (X11; Ubuntu; Linux x86_64; rv:131.0) Gecko/20100101 Firefox/131.0" version="24.7.17" pages="7">
  <diagram name="Context Diagram" id="x1tbTAesST3s8-twPYKx">
    <mxGraphModel grid="1" page="1" gridSize="10" guides="1" tooltips="1" connect="1" arrows="1" fold="1" pageScale="1" pageWidth="850" pageHeight="1100" math="0" shadow="0">
      <root>
        <mxCell id="0" />
        <mxCell id="1" parent="0" />
        <mxCell id="44F4MaAYvW10Vj6gv4yY-1" value="&lt;font style=&quot;font-size: 21px;&quot;&gt;&lt;b&gt;SystÃ¨me&lt;/b&gt;&lt;/font&gt;" style="rounded=0;whiteSpace=wrap;html=1;" parent="1" vertex="1">
          <mxGeometry x="270" y="30" width="450" height="530" as="geometry" />
        </mxCell>
        <mxCell id="P-3_Eh5UMcKbnv56vXSY-5" value="" style="edgeStyle=orthogonalEdgeStyle;rounded=0;orthogonalLoop=1;jettySize=auto;html=1;" parent="1" source="44F4MaAYvW10Vj6gv4yY-2" target="QTQGk0w9kQ9sxnGPQk_0-1" edge="1">
          <mxGeometry relative="1" as="geometry" />
        </mxCell>
        <mxCell id="44F4MaAYvW10Vj6gv4yY-2" value="BasicUser" style="shape=umlActor;verticalLabelPosition=bottom;verticalAlign=top;html=1;outlineConnect=0;" parent="1" vertex="1">
          <mxGeometry x="120" y="287" width="30" height="63" as="geometry" />
        </mxCell>
        <mxCell id="44F4MaAYvW10Vj6gv4yY-3" value="Customer" style="shape=umlActor;verticalLabelPosition=bottom;verticalAlign=top;html=1;outlineConnect=0;" parent="1" vertex="1">
          <mxGeometry x="60" y="190" width="30" height="60" as="geometry" />
        </mxCell>
        <mxCell id="44F4MaAYvW10Vj6gv4yY-4" style="edgeStyle=orthogonalEdgeStyle;rounded=0;orthogonalLoop=1;jettySize=auto;html=1;" parent="1" edge="1">
          <mxGeometry relative="1" as="geometry">
            <mxPoint x="130" y="373" as="targetPoint" />
            <Array as="points">
              <mxPoint x="130" y="433" />
            </Array>
            <mxPoint x="90" y="433" as="sourcePoint" />
          </mxGeometry>
        </mxCell>
        <mxCell id="44F4MaAYvW10Vj6gv4yY-5" value="Driver" style="shape=umlActor;verticalLabelPosition=bottom;verticalAlign=top;html=1;outlineConnect=0;" parent="1" vertex="1">
          <mxGeometry x="60" y="400" width="30" height="60" as="geometry" />
        </mxCell>
        <mxCell id="44F4MaAYvW10Vj6gv4yY-6" value="Geolocalisation Service" style="shape=umlActor;verticalLabelPosition=bottom;verticalAlign=top;html=1;" parent="1" vertex="1">
          <mxGeometry x="860" y="120" width="30" height="60" as="geometry" />
        </mxCell>
        <mxCell id="44F4MaAYvW10Vj6gv4yY-7" value="Payment Service" style="shape=umlActor;verticalLabelPosition=bottom;verticalAlign=top;html=1;" parent="1" vertex="1">
          <mxGeometry x="860" y="240" width="30" height="60" as="geometry" />
        </mxCell>
        <mxCell id="44F4MaAYvW10Vj6gv4yY-8" style="edgeStyle=orthogonalEdgeStyle;rounded=0;orthogonalLoop=1;jettySize=auto;html=1;" parent="1" edge="1">
          <mxGeometry relative="1" as="geometry">
            <mxPoint x="210" y="357" as="targetPoint" />
            <mxPoint x="870" y="557" as="sourcePoint" />
            <Array as="points">
              <mxPoint x="870" y="597" />
              <mxPoint x="211" y="597" />
            </Array>
          </mxGeometry>
        </mxCell>
        <mxCell id="44F4MaAYvW10Vj6gv4yY-9" value="Admin" style="shape=umlActor;verticalLabelPosition=bottom;verticalAlign=top;html=1;" parent="1" vertex="1">
          <mxGeometry x="860" y="470" width="30" height="60" as="geometry" />
        </mxCell>
        <mxCell id="YQ5EQjHpF3fpWMuT3rfL-1" value="" style="edgeStyle=orthogonalEdgeStyle;rounded=0;orthogonalLoop=1;jettySize=auto;html=1;" edge="1" parent="1" source="44F4MaAYvW10Vj6gv4yY-11" target="44F4MaAYvW10Vj6gv4yY-9">
          <mxGeometry relative="1" as="geometry" />
        </mxCell>
        <mxCell id="44F4MaAYvW10Vj6gv4yY-11" value="SuperAdmin" style="shape=umlActor;verticalLabelPosition=bottom;verticalAlign=top;html=1;" parent="1" vertex="1">
          <mxGeometry x="1000" y="470" width="30" height="60" as="geometry" />
        </mxCell>
        <mxCell id="44F4MaAYvW10Vj6gv4yY-12" value="Authentication Service" style="shape=umlActor;verticalLabelPosition=bottom;verticalAlign=top;html=1;" parent="1" vertex="1">
          <mxGeometry x="860" y="360" width="30" height="60" as="geometry" />
        </mxCell>
        <mxCell id="44F4MaAYvW10Vj6gv4yY-13" value="OpenStreetMap API" style="shape=umlActor;verticalLabelPosition=bottom;verticalAlign=top;html=1;" parent="1" vertex="1">
          <mxGeometry x="860" y="14" width="30" height="60" as="geometry" />
        </mxCell>
        <mxCell id="44F4MaAYvW10Vj6gv4yY-14" style="edgeStyle=orthogonalEdgeStyle;rounded=0;orthogonalLoop=1;jettySize=auto;html=1;entryX=0.5;entryY=0;entryDx=0;entryDy=0;entryPerimeter=0;" parent="1" edge="1">
          <mxGeometry relative="1" as="geometry">
            <mxPoint x="90" y="213" as="sourcePoint" />
            <mxPoint x="135" y="280" as="targetPoint" />
          </mxGeometry>
        </mxCell>
        <mxCell id="44F4MaAYvW10Vj6gv4yY-15" value="" style="endArrow=none;html=1;rounded=0;entryX=-0.002;entryY=0.514;entryDx=0;entryDy=0;entryPerimeter=0;" parent="1" target="44F4MaAYvW10Vj6gv4yY-1" edge="1">
          <mxGeometry width="50" height="50" relative="1" as="geometry">
            <mxPoint x="220" y="302" as="sourcePoint" />
            <mxPoint x="258" y="300" as="targetPoint" />
          </mxGeometry>
        </mxCell>
        <mxCell id="44F4MaAYvW10Vj6gv4yY-16" value="" style="endArrow=none;html=1;rounded=0;" parent="1" edge="1">
          <mxGeometry width="50" height="50" relative="1" as="geometry">
            <mxPoint x="720" y="80" as="sourcePoint" />
            <mxPoint x="840" y="40" as="targetPoint" />
          </mxGeometry>
        </mxCell>
        <mxCell id="44F4MaAYvW10Vj6gv4yY-17" value="" style="endArrow=none;html=1;rounded=0;entryX=0;entryY=0.3333333333333333;entryDx=0;entryDy=0;entryPerimeter=0;" parent="1" target="44F4MaAYvW10Vj6gv4yY-6" edge="1">
          <mxGeometry width="50" height="50" relative="1" as="geometry">
            <mxPoint x="720" y="190" as="sourcePoint" />
            <mxPoint x="770" y="140" as="targetPoint" />
          </mxGeometry>
        </mxCell>
        <mxCell id="44F4MaAYvW10Vj6gv4yY-18" value="" style="endArrow=none;html=1;rounded=0;" parent="1" edge="1">
          <mxGeometry width="50" height="50" relative="1" as="geometry">
            <mxPoint x="720" y="260" as="sourcePoint" />
            <mxPoint x="850" y="260" as="targetPoint" />
          </mxGeometry>
        </mxCell>
        <mxCell id="44F4MaAYvW10Vj6gv4yY-19" value="" style="endArrow=none;html=1;rounded=0;exitX=1.006;exitY=0.667;exitDx=0;exitDy=0;exitPerimeter=0;" parent="1" source="44F4MaAYvW10Vj6gv4yY-1" edge="1">
          <mxGeometry width="50" height="50" relative="1" as="geometry">
            <mxPoint x="720" y="390" as="sourcePoint" />
            <mxPoint x="850" y="380" as="targetPoint" />
          </mxGeometry>
        </mxCell>
        <mxCell id="44F4MaAYvW10Vj6gv4yY-20" value="" style="endArrow=none;html=1;rounded=0;" parent="1" edge="1">
          <mxGeometry width="50" height="50" relative="1" as="geometry">
            <mxPoint x="720" y="490" as="sourcePoint" />
            <mxPoint x="850" y="490" as="targetPoint" />
          </mxGeometry>
        </mxCell>
        <mxCell id="44F4MaAYvW10Vj6gv4yY-21" value="" style="line;strokeWidth=1;fillColor=none;align=left;verticalAlign=middle;spacingTop=-1;spacingLeft=3;spacingRight=3;rotatable=0;labelPosition=right;points=[];portConstraint=eastwest;strokeColor=inherit;" parent="1" vertex="1">
          <mxGeometry x="869" y="106" width="13" height="38" as="geometry" />
        </mxCell>
        <mxCell id="44F4MaAYvW10Vj6gv4yY-22" value="" style="line;strokeWidth=1;fillColor=none;align=left;verticalAlign=middle;spacingTop=-1;spacingLeft=3;spacingRight=3;rotatable=0;labelPosition=right;points=[];portConstraint=eastwest;strokeColor=inherit;" parent="1" vertex="1">
          <mxGeometry x="869" y="226" width="13" height="38" as="geometry" />
        </mxCell>
        <mxCell id="44F4MaAYvW10Vj6gv4yY-23" value="" style="line;strokeWidth=1;fillColor=none;align=left;verticalAlign=middle;spacingTop=-1;spacingLeft=3;spacingRight=3;rotatable=0;labelPosition=right;points=[];portConstraint=eastwest;strokeColor=inherit;" parent="1" vertex="1">
          <mxGeometry x="869" y="347" width="13" height="38" as="geometry" />
        </mxCell>
        <mxCell id="QTQGk0w9kQ9sxnGPQk_0-1" value="User" style="shape=umlActor;verticalLabelPosition=bottom;verticalAlign=top;html=1;outlineConnect=0;" parent="1" vertex="1">
          <mxGeometry x="190" y="265" width="30" height="60" as="geometry" />
        </mxCell>
      </root>
    </mxGraphModel>
  </diagram>
  <diagram id="c6Fszy9GSYDu8Ct9Fu2V" name="Package Diagram">
    <mxGraphModel dx="810" dy="483" grid="1" gridSize="10" guides="1" tooltips="1" connect="1" arrows="1" fold="1" page="1" pageScale="1" pageWidth="850" pageHeight="1100" math="0" shadow="0">
      <root>
        <mxCell id="0" />
        <mxCell id="1" parent="0" />
        <mxCell id="RKZHSXEZgHJZqPdEJ60I-2" value="" style="rounded=0;whiteSpace=wrap;html=1;" parent="1" vertex="1">
          <mxGeometry x="140" y="40" width="490" height="400" as="geometry" />
        </mxCell>
        <mxCell id="RKZHSXEZgHJZqPdEJ60I-3" value="" style="shape=folder;fontStyle=1;spacingTop=10;tabWidth=110;tabHeight=30;tabPosition=left;html=1;whiteSpace=wrap;" parent="1" vertex="1">
          <mxGeometry x="160" y="60" width="200" height="110" as="geometry" />
        </mxCell>
        <mxCell id="RKZHSXEZgHJZqPdEJ60I-4" value="" style="shape=folder;fontStyle=1;spacingTop=10;tabWidth=110;tabHeight=30;tabPosition=left;html=1;whiteSpace=wrap;" parent="1" vertex="1">
          <mxGeometry x="380" y="60" width="200" height="110" as="geometry" />
        </mxCell>
        <mxCell id="RKZHSXEZgHJZqPdEJ60I-5" value="" style="shape=folder;fontStyle=1;spacingTop=10;tabWidth=110;tabHeight=30;tabPosition=left;html=1;whiteSpace=wrap;" parent="1" vertex="1">
          <mxGeometry x="160" y="310" width="200" height="100" as="geometry" />
        </mxCell>
        <mxCell id="RKZHSXEZgHJZqPdEJ60I-6" value="" style="shape=folder;fontStyle=1;spacingTop=10;tabWidth=120;tabHeight=30;tabPosition=left;html=1;whiteSpace=wrap;" parent="1" vertex="1">
          <mxGeometry x="380" y="200" width="210" height="100" as="geometry" />
        </mxCell>
        <mxCell id="RKZHSXEZgHJZqPdEJ60I-7" value="" style="shape=folder;fontStyle=1;spacingTop=10;tabWidth=110;tabHeight=30;tabPosition=left;html=1;whiteSpace=wrap;" parent="1" vertex="1">
          <mxGeometry x="160" y="200" width="190" height="100" as="geometry" />
        </mxCell>
        <mxCell id="OZUUgjQr1ptq2pMlv30u-1" value="&lt;p data-pm-slice=&quot;1 1 [&amp;quot;bulletList&amp;quot;,null,&amp;quot;listItem&amp;quot;,null]&quot;&gt;coÃ»ts et itinÃ©raires&lt;/p&gt;" style="text;html=1;align=center;verticalAlign=middle;whiteSpace=wrap;rounded=0;strokeWidth=4;" parent="1" vertex="1">
          <mxGeometry x="160" y="60" width="110" height="30" as="geometry" />
        </mxCell>
        <mxCell id="OZUUgjQr1ptq2pMlv30u-2" value="&lt;p data-pm-slice=&quot;1 1 [&amp;quot;bulletList&amp;quot;,null,&amp;quot;listItem&amp;quot;,null]&quot;&gt;Gestion des profils &lt;/p&gt;" style="text;html=1;align=center;verticalAlign=middle;whiteSpace=wrap;rounded=0;" parent="1" vertex="1">
          <mxGeometry x="380" y="60" width="110" height="30" as="geometry" />
        </mxCell>
        <mxCell id="OZUUgjQr1ptq2pMlv30u-3" value="Gestion des notations et avis" style="text;html=1;align=center;verticalAlign=middle;whiteSpace=wrap;rounded=0;" parent="1" vertex="1">
          <mxGeometry x="160" y="310" width="110" height="30" as="geometry" />
        </mxCell>
        <mxCell id="OZUUgjQr1ptq2pMlv30u-4" value="&lt;p data-pm-slice=&quot;1 1 [&amp;quot;bulletList&amp;quot;,null,&amp;quot;listItem&amp;quot;,null]&quot;&gt;Gestion des notifications&lt;/p&gt;" style="text;html=1;align=center;verticalAlign=middle;whiteSpace=wrap;rounded=0;" parent="1" vertex="1">
          <mxGeometry x="380" y="200" width="130" height="30" as="geometry" />
        </mxCell>
        <mxCell id="OZUUgjQr1ptq2pMlv30u-5" value="&lt;p data-pm-slice=&quot;1 1 [&amp;quot;bulletList&amp;quot;,null,&amp;quot;listItem&amp;quot;,null]&quot;&gt;Gestion des suggestions &lt;/p&gt;" style="text;html=1;align=center;verticalAlign=middle;whiteSpace=wrap;rounded=0;" parent="1" vertex="1">
          <mxGeometry x="170" y="200" width="85" height="30" as="geometry" />
        </mxCell>
      </root>
    </mxGraphModel>
  </diagram>
  <diagram id="SI_PrC-5Oavi6ijCYFNM" name="Use case Diagram">
    <mxGraphModel grid="1" page="1" gridSize="25" guides="1" tooltips="1" connect="1" arrows="1" fold="1" pageScale="1" pageWidth="850" pageHeight="1100" math="0" shadow="0">
      <root>
        <mxCell id="0" />
        <mxCell id="1" parent="0" />
        <mxCell id="zwcXZ0TuJRXEdvrgDjS8-2" value="" style="rounded=0;whiteSpace=wrap;html=1;" parent="1" vertex="1">
          <mxGeometry x="447" y="-850" width="1410" height="1890" as="geometry" />
        </mxCell>
        <mxCell id="VpgmclL6Frkf44dY98_w-81" value="&lt;h1 style=&quot;margin-top: 0px;&quot;&gt;&lt;font style=&quot;font-size: 36px;&quot;&gt;Use Case diagram.&lt;/font&gt;&lt;/h1&gt;" style="text;html=1;whiteSpace=wrap;overflow=hidden;rounded=0;" parent="1" vertex="1">
          <mxGeometry x="680" y="-960" width="370" height="120" as="geometry" />
        </mxCell>
        <mxCell id="lKP4GF6vWRbdKaE7gU3P-5" style="edgeStyle=orthogonalEdgeStyle;rounded=0;orthogonalLoop=1;jettySize=auto;html=1;" parent="1" source="VpgmclL6Frkf44dY98_w-2" target="VpgmclL6Frkf44dY98_w-3" edge="1">
          <mxGeometry relative="1" as="geometry">
            <mxPoint x="2010" y="-530" as="targetPoint" />
          </mxGeometry>
        </mxCell>
        <mxCell id="VpgmclL6Frkf44dY98_w-2" value="&lt;font style=&quot;font-size: 25px;&quot;&gt;superAdmin&lt;/font&gt;" style="shape=umlActor;verticalLabelPosition=bottom;verticalAlign=top;html=1;outlineConnect=0;strokeWidth=2;fontSize=25;" parent="1" vertex="1">
          <mxGeometry x="2010" y="-260" width="100" height="130" as="geometry" />
        </mxCell>
        <mxCell id="zwcXZ0TuJRXEdvrgDjS8-30" style="edgeStyle=orthogonalEdgeStyle;rounded=0;orthogonalLoop=1;jettySize=auto;html=1;exitX=0.5;exitY=0;exitDx=0;exitDy=0;exitPerimeter=0;" parent="1" source="VpgmclL6Frkf44dY98_w-3" edge="1">
          <mxGeometry relative="1" as="geometry">
            <Array as="points">
              <mxPoint x="1990" y="-660" />
              <mxPoint x="2000" y="-660" />
              <mxPoint x="2000" y="-884" />
              <mxPoint x="250" y="-884" />
            </Array>
            <mxPoint x="2065" y="-660.0000000000001" as="sourcePoint" />
            <mxPoint x="250" y="-700" as="targetPoint" />
          </mxGeometry>
        </mxCell>
        <mxCell id="VpgmclL6Frkf44dY98_w-3" value="&lt;font style=&quot;font-size: 25px;&quot;&gt;admin&lt;/font&gt;" style="shape=umlActor;verticalLabelPosition=bottom;verticalAlign=top;html=1;outlineConnect=0;strokeWidth=2;fontSize=25;" parent="1" vertex="1">
          <mxGeometry x="1940" y="-680" width="100" height="141" as="geometry" />
        </mxCell>
        <mxCell id="VpgmclL6Frkf44dY98_w-4" value="&lt;font style=&quot;font-size: 20px;&quot;&gt;Consulter les statistiques&lt;/font&gt;" style="ellipse;whiteSpace=wrap;html=1;strokeWidth=2;fontSize=20;" parent="1" vertex="1">
          <mxGeometry x="1000" y="-810" width="270" height="80" as="geometry" />
        </mxCell>
        <mxCell id="VpgmclL6Frkf44dY98_w-5" value="&lt;font style=&quot;font-size: 20px;&quot;&gt;Consulter les plaintes&lt;/font&gt;" style="ellipse;whiteSpace=wrap;html=1;strokeWidth=2;fontSize=20;" parent="1" vertex="1">
          <mxGeometry x="1160" y="-710" width="250" height="90" as="geometry" />
        </mxCell>
        <mxCell id="VpgmclL6Frkf44dY98_w-6" value="&lt;font style=&quot;font-size: 20px;&quot;&gt;GÃ©rer&amp;nbsp; les comptes admins&lt;/font&gt;" style="ellipse;whiteSpace=wrap;html=1;strokeWidth=2;fontSize=20;" parent="1" vertex="1">
          <mxGeometry x="1530" y="-260" width="230" height="95" as="geometry" />
        </mxCell>
        <mxCell id="VpgmclL6Frkf44dY98_w-9" value="&lt;span style=&quot;font-size: 25px;&quot;&gt;User&lt;/span&gt;" style="shape=umlActor;verticalLabelPosition=bottom;verticalAlign=top;html=1;outlineConnect=0;strokeWidth=2;fontSize=25;" parent="1" vertex="1">
          <mxGeometry x="180" y="-680" width="123" height="141" as="geometry" />
        </mxCell>
        <mxCell id="VpgmclL6Frkf44dY98_w-10" value="&lt;span style=&quot;font-size: 20px;&quot;&gt;GÃ©rer son profil&lt;/span&gt;" style="ellipse;whiteSpace=wrap;html=1;strokeWidth=2;fontSize=20;" parent="1" vertex="1">
          <mxGeometry x="491.63" y="-730" width="317.75" height="70" as="geometry" />
        </mxCell>
        <mxCell id="VpgmclL6Frkf44dY98_w-11" value="&lt;span style=&quot;font-size: 20px;&quot;&gt;Consulter son historique&lt;/span&gt;" style="ellipse;whiteSpace=wrap;html=1;strokeWidth=2;fontSize=20;" parent="1" vertex="1">
          <mxGeometry x="482" y="-556.65" width="288" height="60" as="geometry" />
        </mxCell>
        <mxCell id="VpgmclL6Frkf44dY98_w-12" value="&lt;span style=&quot;font-size: 20px;&quot;&gt;S&#39;authentifier&lt;/span&gt;" style="ellipse;whiteSpace=wrap;html=1;strokeWidth=2;fontSize=20;" parent="1" vertex="1">
          <mxGeometry x="1290" y="100" width="257" height="90" as="geometry" />
        </mxCell>
        <mxCell id="VpgmclL6Frkf44dY98_w-13" value="&lt;span style=&quot;font-size: 20px;&quot;&gt;CrÃ©er et personnaliser ses itinÃ©raires&lt;/span&gt;" style="ellipse;whiteSpace=wrap;html=1;strokeWidth=2;fontSize=20;" parent="1" vertex="1">
          <mxGeometry x="461" y="-307" width="313" height="70" as="geometry" />
        </mxCell>
        <mxCell id="VpgmclL6Frkf44dY98_w-14" value="&lt;span style=&quot;font-size: 20px;&quot;&gt;Faire une notation&lt;/span&gt;" style="ellipse;whiteSpace=wrap;html=1;strokeWidth=2;fontSize=20;" parent="1" vertex="1">
          <mxGeometry x="517" y="50" width="323" height="60" as="geometry" />
        </mxCell>
        <mxCell id="VpgmclL6Frkf44dY98_w-15" value="&lt;span style=&quot;font-size: 20px;&quot;&gt;Suivre la position en temps rÃ©el&amp;nbsp;&lt;/span&gt;" style="ellipse;whiteSpace=wrap;html=1;strokeWidth=2;fontSize=20;" parent="1" vertex="1">
          <mxGeometry x="467" y="-220" width="315" height="74" as="geometry" />
        </mxCell>
        <mxCell id="VpgmclL6Frkf44dY98_w-16" value="&lt;span style=&quot;font-size: 20px;&quot;&gt;Signaler un incident&lt;/span&gt;" style="ellipse;whiteSpace=wrap;html=1;strokeWidth=2;fontSize=20;" parent="1" vertex="1">
          <mxGeometry x="482" y="-130" width="337" height="64" as="geometry" />
        </mxCell>
        <mxCell id="VpgmclL6Frkf44dY98_w-17" value="&lt;span style=&quot;font-size: 20px;&quot;&gt;Rechercher un taxi pour un dÃ©placement&lt;/span&gt;" style="ellipse;whiteSpace=wrap;html=1;strokeWidth=2;fontSize=20;" parent="1" vertex="1">
          <mxGeometry x="455.5" y="500" width="344.5" height="70" as="geometry" />
        </mxCell>
        <mxCell id="VpgmclL6Frkf44dY98_w-18" value="&lt;span style=&quot;font-size: 20px;&quot;&gt;GÃ©rer son abonnement&lt;/span&gt;" style="ellipse;whiteSpace=wrap;html=1;strokeWidth=2;fontSize=20;" parent="1" vertex="1">
          <mxGeometry x="509.5" y="650" width="257" height="60" as="geometry" />
        </mxCell>
        <mxCell id="VpgmclL6Frkf44dY98_w-19" value="&lt;span style=&quot;font-size: 20px;&quot;&gt;Estimer le coÃ»t d&#39;un trajet&lt;/span&gt;" style="ellipse;whiteSpace=wrap;html=1;strokeWidth=2;fontSize=20;" parent="1" vertex="1">
          <mxGeometry x="464" y="400" width="307" height="50" as="geometry" />
        </mxCell>
        <mxCell id="VpgmclL6Frkf44dY98_w-20" value="&lt;span style=&quot;font-size: 20px;&quot;&gt;Prendre un client pour un trajet&lt;/span&gt;" style="ellipse;whiteSpace=wrap;html=1;strokeWidth=2;fontSize=20;" parent="1" vertex="1">
          <mxGeometry x="458.5" y="820" width="308" height="60" as="geometry" />
        </mxCell>
        <mxCell id="VpgmclL6Frkf44dY98_w-21" value="&lt;span style=&quot;font-size: 20px;&quot;&gt;Authentifier ses piÃ¨ces&lt;/span&gt;" style="ellipse;whiteSpace=wrap;html=1;strokeWidth=2;fontSize=20;" parent="1" vertex="1">
          <mxGeometry x="497" y="910" width="267" height="60" as="geometry" />
        </mxCell>
        <mxCell id="VpgmclL6Frkf44dY98_w-22" value="&lt;span style=&quot;font-size: 20px;&quot;&gt;GÃ©rer les comptes utilisateurs&lt;/span&gt;" style="ellipse;whiteSpace=wrap;html=1;strokeWidth=2;fontSize=20;" parent="1" vertex="1">
          <mxGeometry x="1480" y="-370" width="280" height="60" as="geometry" />
        </mxCell>
        <mxCell id="VpgmclL6Frkf44dY98_w-23" value="" style="endArrow=none;html=1;rounded=0;strokeWidth=2;fontSize=20;entryX=1;entryY=0.5;entryDx=0;entryDy=0;" parent="1" target="VpgmclL6Frkf44dY98_w-4" edge="1">
          <mxGeometry width="50" height="50" relative="1" as="geometry">
            <mxPoint x="1920" y="-570" as="sourcePoint" />
            <mxPoint x="665" y="-520" as="targetPoint" />
          </mxGeometry>
        </mxCell>
        <mxCell id="VpgmclL6Frkf44dY98_w-24" value="" style="endArrow=none;html=1;rounded=0;strokeWidth=2;fontSize=20;entryX=1;entryY=0.5;entryDx=0;entryDy=0;" parent="1" target="VpgmclL6Frkf44dY98_w-5" edge="1">
          <mxGeometry width="50" height="50" relative="1" as="geometry">
            <mxPoint x="1910" y="-570" as="sourcePoint" />
            <mxPoint x="1310" y="-560" as="targetPoint" />
          </mxGeometry>
        </mxCell>
        <mxCell id="VpgmclL6Frkf44dY98_w-25" value="" style="endArrow=none;html=1;rounded=0;entryX=0;entryY=0.5;entryDx=0;entryDy=0;strokeWidth=2;fontSize=20;" parent="1" target="VpgmclL6Frkf44dY98_w-27" edge="1">
          <mxGeometry width="50" height="50" relative="1" as="geometry">
            <mxPoint x="1920" y="-570" as="sourcePoint" />
            <mxPoint x="368" y="-494" as="targetPoint" />
          </mxGeometry>
        </mxCell>
        <mxCell id="VpgmclL6Frkf44dY98_w-26" value="" style="endArrow=none;html=1;rounded=0;entryX=1;entryY=0.5;entryDx=0;entryDy=0;strokeWidth=2;fontSize=20;" parent="1" target="VpgmclL6Frkf44dY98_w-22" edge="1">
          <mxGeometry width="50" height="50" relative="1" as="geometry">
            <mxPoint x="1920" y="-570" as="sourcePoint" />
            <mxPoint x="378" y="-484" as="targetPoint" />
          </mxGeometry>
        </mxCell>
        <mxCell id="VpgmclL6Frkf44dY98_w-27" value="&lt;span style=&quot;font-size: 20px;&quot;&gt;Suspendre les clients ou les chauffeurs&lt;/span&gt;" style="ellipse;whiteSpace=wrap;html=1;strokeWidth=2;fontSize=20;" parent="1" vertex="1">
          <mxGeometry x="1330" y="-550" width="310" height="70" as="geometry" />
        </mxCell>
        <mxCell id="VpgmclL6Frkf44dY98_w-28" value="" style="endArrow=none;html=1;rounded=0;entryX=1;entryY=0.5;entryDx=0;entryDy=0;strokeWidth=2;fontSize=20;exitX=0;exitY=0.3333333333333333;exitDx=0;exitDy=0;exitPerimeter=0;" parent="1" source="VpgmclL6Frkf44dY98_w-2" target="VpgmclL6Frkf44dY98_w-6" edge="1">
          <mxGeometry width="50" height="50" relative="1" as="geometry">
            <mxPoint x="1930" y="-272" as="sourcePoint" />
            <mxPoint x="403" y="-375" as="targetPoint" />
          </mxGeometry>
        </mxCell>
        <mxCell id="VpgmclL6Frkf44dY98_w-29" value="" style="endArrow=none;html=1;rounded=0;entryX=0;entryY=0.5;entryDx=0;entryDy=0;strokeWidth=2;fontSize=20;" parent="1" target="VpgmclL6Frkf44dY98_w-10" edge="1">
          <mxGeometry width="50" height="50" relative="1" as="geometry">
            <mxPoint x="325" y="-580" as="sourcePoint" />
            <mxPoint x="473" y="-300" as="targetPoint" />
          </mxGeometry>
        </mxCell>
        <mxCell id="VpgmclL6Frkf44dY98_w-30" value="" style="endArrow=none;html=1;rounded=0;entryX=0;entryY=0.5;entryDx=0;entryDy=0;strokeWidth=2;fontSize=20;" parent="1" target="VpgmclL6Frkf44dY98_w-11" edge="1">
          <mxGeometry width="50" height="50" relative="1" as="geometry">
            <mxPoint x="320" y="-580" as="sourcePoint" />
            <mxPoint x="413" y="-50" as="targetPoint" />
          </mxGeometry>
        </mxCell>
        <mxCell id="zwcXZ0TuJRXEdvrgDjS8-28" style="edgeStyle=orthogonalEdgeStyle;rounded=0;orthogonalLoop=1;jettySize=auto;html=1;exitX=0.5;exitY=0;exitDx=0;exitDy=0;exitPerimeter=0;" parent="1" source="VpgmclL6Frkf44dY98_w-32" edge="1">
          <mxGeometry relative="1" as="geometry">
            <mxPoint x="240" y="-510" as="targetPoint" />
          </mxGeometry>
        </mxCell>
        <mxCell id="VpgmclL6Frkf44dY98_w-32" value="&lt;font style=&quot;font-size: 25px;&quot;&gt;Basic User&lt;/font&gt;" style="shape=umlActor;verticalLabelPosition=bottom;verticalAlign=top;html=1;outlineConnect=0;strokeWidth=2;fontSize=12;" parent="1" vertex="1">
          <mxGeometry x="110" y="40" width="120" height="190" as="geometry" />
        </mxCell>
        <mxCell id="lKP4GF6vWRbdKaE7gU3P-8" style="edgeStyle=orthogonalEdgeStyle;rounded=0;orthogonalLoop=1;jettySize=auto;html=1;" parent="1" source="VpgmclL6Frkf44dY98_w-34" target="VpgmclL6Frkf44dY98_w-32" edge="1">
          <mxGeometry relative="1" as="geometry">
            <mxPoint x="236.5" y="250" as="targetPoint" />
          </mxGeometry>
        </mxCell>
        <mxCell id="VpgmclL6Frkf44dY98_w-34" value="&lt;font style=&quot;font-size: 25px;&quot;&gt;Customer&lt;/font&gt;" style="shape=umlActor;verticalLabelPosition=bottom;verticalAlign=top;html=1;outlineConnect=0;strokeWidth=2;fontSize=12;" parent="1" vertex="1">
          <mxGeometry x="190" y="380" width="93" height="140" as="geometry" />
        </mxCell>
        <mxCell id="VpgmclL6Frkf44dY98_w-36" value="&lt;span style=&quot;font-size: 20px;&quot;&gt;Rechercher un itinÃ©raire ou un lieu&lt;/span&gt;" style="ellipse;whiteSpace=wrap;html=1;strokeWidth=2;fontSize=20;" parent="1" vertex="1">
          <mxGeometry x="497" y="-30" width="313" height="60" as="geometry" />
        </mxCell>
        <mxCell id="VpgmclL6Frkf44dY98_w-37" value="" style="endArrow=none;html=1;rounded=0;entryX=0;entryY=0.5;entryDx=0;entryDy=0;strokeWidth=2;fontSize=20;" parent="1" target="VpgmclL6Frkf44dY98_w-13" edge="1">
          <mxGeometry width="50" height="50" relative="1" as="geometry">
            <mxPoint x="280" y="210" as="sourcePoint" />
            <mxPoint x="547" y="-342" as="targetPoint" />
          </mxGeometry>
        </mxCell>
        <mxCell id="VpgmclL6Frkf44dY98_w-38" value="" style="endArrow=none;html=1;rounded=0;entryX=0;entryY=0.5;entryDx=0;entryDy=0;strokeWidth=2;fontSize=20;" parent="1" target="VpgmclL6Frkf44dY98_w-16" edge="1">
          <mxGeometry width="50" height="50" relative="1" as="geometry">
            <mxPoint x="277" y="210" as="sourcePoint" />
            <mxPoint x="517" y="-130" as="targetPoint" />
            <Array as="points" />
          </mxGeometry>
        </mxCell>
        <mxCell id="VpgmclL6Frkf44dY98_w-39" value="" style="endArrow=none;html=1;rounded=0;entryX=0.016;entryY=0.415;entryDx=0;entryDy=0;entryPerimeter=0;strokeWidth=2;fontSize=20;" parent="1" target="VpgmclL6Frkf44dY98_w-36" edge="1">
          <mxGeometry width="50" height="50" relative="1" as="geometry">
            <mxPoint x="280" y="210" as="sourcePoint" />
            <mxPoint x="517" y="-70" as="targetPoint" />
            <Array as="points" />
          </mxGeometry>
        </mxCell>
        <mxCell id="VpgmclL6Frkf44dY98_w-40" value="" style="endArrow=none;html=1;rounded=0;strokeWidth=2;fontSize=20;entryX=0;entryY=0.5;entryDx=0;entryDy=0;" parent="1" target="VpgmclL6Frkf44dY98_w-14" edge="1">
          <mxGeometry width="50" height="50" relative="1" as="geometry">
            <mxPoint x="280" y="210" as="sourcePoint" />
            <mxPoint x="450.50000000000006" y="231.80000000000018" as="targetPoint" />
            <Array as="points" />
          </mxGeometry>
        </mxCell>
        <mxCell id="VpgmclL6Frkf44dY98_w-41" value="&lt;span style=&quot;font-size: 20px;&quot;&gt;Noter un chauffeur&lt;/span&gt;" style="ellipse;whiteSpace=wrap;html=1;strokeWidth=2;fontSize=20;" parent="1" vertex="1">
          <mxGeometry x="447" y="300" width="343" height="60" as="geometry" />
        </mxCell>
        <mxCell id="VpgmclL6Frkf44dY98_w-42" value="" style="endArrow=none;html=1;rounded=0;entryX=0;entryY=0.5;entryDx=0;entryDy=0;strokeWidth=2;fontSize=20;" parent="1" target="VpgmclL6Frkf44dY98_w-19" edge="1">
          <mxGeometry width="50" height="50" relative="1" as="geometry">
            <mxPoint x="290" y="490" as="sourcePoint" />
            <mxPoint x="501" y="162" as="targetPoint" />
            <Array as="points" />
          </mxGeometry>
        </mxCell>
        <mxCell id="VpgmclL6Frkf44dY98_w-43" value="" style="endArrow=none;html=1;rounded=0;entryX=0.024;entryY=0.402;entryDx=0;entryDy=0;entryPerimeter=0;strokeWidth=2;fontSize=20;" parent="1" target="VpgmclL6Frkf44dY98_w-41" edge="1">
          <mxGeometry width="50" height="50" relative="1" as="geometry">
            <mxPoint x="290" y="490" as="sourcePoint" />
            <mxPoint x="511" y="172" as="targetPoint" />
            <Array as="points" />
          </mxGeometry>
        </mxCell>
        <mxCell id="VpgmclL6Frkf44dY98_w-44" value="" style="endArrow=none;html=1;rounded=0;entryX=0;entryY=0.5;entryDx=0;entryDy=0;strokeWidth=2;fontSize=20;" parent="1" target="VpgmclL6Frkf44dY98_w-17" edge="1">
          <mxGeometry width="50" height="50" relative="1" as="geometry">
            <mxPoint x="290" y="490" as="sourcePoint" />
            <mxPoint x="479.8699999999999" y="567.2000000000003" as="targetPoint" />
            <Array as="points" />
          </mxGeometry>
        </mxCell>
        <mxCell id="zwcXZ0TuJRXEdvrgDjS8-27" style="edgeStyle=orthogonalEdgeStyle;rounded=0;orthogonalLoop=1;jettySize=auto;html=1;exitX=0.25;exitY=0.1;exitDx=0;exitDy=0;exitPerimeter=0;" parent="1" source="VpgmclL6Frkf44dY98_w-45" edge="1">
          <mxGeometry relative="1" as="geometry">
            <mxPoint x="130" y="270" as="targetPoint" />
          </mxGeometry>
        </mxCell>
        <mxCell id="VpgmclL6Frkf44dY98_w-45" value="&lt;span style=&quot;font-size: 25px;&quot;&gt;Driver&lt;/span&gt;" style="shape=umlActor;verticalLabelPosition=bottom;verticalAlign=top;html=1;outlineConnect=0;strokeWidth=2;fontSize=25;" parent="1" vertex="1">
          <mxGeometry x="250" y="670" width="83" height="150" as="geometry" />
        </mxCell>
        <mxCell id="VpgmclL6Frkf44dY98_w-46" value="&lt;span style=&quot;font-size: 20px;&quot;&gt;Noter un client&lt;/span&gt;" style="ellipse;whiteSpace=wrap;html=1;strokeWidth=2;fontSize=20;" parent="1" vertex="1">
          <mxGeometry x="1260" y="670" width="270" height="60" as="geometry" />
        </mxCell>
        <mxCell id="VpgmclL6Frkf44dY98_w-47" value="&lt;span style=&quot;font-size: 20px;&quot;&gt;Rechercher des clients&lt;/span&gt;" style="ellipse;whiteSpace=wrap;html=1;strokeWidth=2;fontSize=20;" parent="1" vertex="1">
          <mxGeometry x="492" y="990" width="277" height="50" as="geometry" />
        </mxCell>
        <mxCell id="VpgmclL6Frkf44dY98_w-48" value="" style="endArrow=none;html=1;rounded=0;entryX=0;entryY=0.5;entryDx=0;entryDy=0;strokeWidth=2;fontSize=20;" parent="1" target="VpgmclL6Frkf44dY98_w-18" edge="1">
          <mxGeometry width="50" height="50" relative="1" as="geometry">
            <mxPoint x="347" y="770" as="sourcePoint" />
            <mxPoint x="489.8699999999999" y="577.2000000000003" as="targetPoint" />
            <Array as="points" />
          </mxGeometry>
        </mxCell>
        <mxCell id="VpgmclL6Frkf44dY98_w-49" value="" style="endArrow=none;html=1;rounded=0;entryX=0;entryY=0;entryDx=0;entryDy=0;strokeWidth=2;fontSize=20;" parent="1" target="VpgmclL6Frkf44dY98_w-20" edge="1">
          <mxGeometry width="50" height="50" relative="1" as="geometry">
            <mxPoint x="346" y="771" as="sourcePoint" />
            <mxPoint x="574.6481937417302" y="852.7721618057835" as="targetPoint" />
            <Array as="points" />
          </mxGeometry>
        </mxCell>
        <mxCell id="VpgmclL6Frkf44dY98_w-50" value="" style="endArrow=none;html=1;rounded=0;entryX=0.028;entryY=0.65;entryDx=0;entryDy=0;entryPerimeter=0;strokeWidth=2;fontSize=20;" parent="1" target="VpgmclL6Frkf44dY98_w-21" edge="1">
          <mxGeometry width="50" height="50" relative="1" as="geometry">
            <mxPoint x="347" y="773" as="sourcePoint" />
            <mxPoint x="518" y="992" as="targetPoint" />
            <Array as="points" />
          </mxGeometry>
        </mxCell>
        <mxCell id="VpgmclL6Frkf44dY98_w-51" value="" style="endArrow=none;html=1;rounded=0;entryX=0.044;entryY=0.313;entryDx=0;entryDy=0;entryPerimeter=0;strokeWidth=2;fontSize=20;" parent="1" target="VpgmclL6Frkf44dY98_w-47" edge="1">
          <mxGeometry width="50" height="50" relative="1" as="geometry">
            <mxPoint x="350" y="775" as="sourcePoint" />
            <mxPoint x="392" y="1530" as="targetPoint" />
            <Array as="points" />
          </mxGeometry>
        </mxCell>
        <mxCell id="VpgmclL6Frkf44dY98_w-52" value="" style="endArrow=none;html=1;rounded=0;entryX=0;entryY=0.5;entryDx=0;entryDy=0;strokeWidth=2;fontSize=20;" parent="1" target="VpgmclL6Frkf44dY98_w-46" edge="1">
          <mxGeometry width="50" height="50" relative="1" as="geometry">
            <mxPoint x="350" y="773" as="sourcePoint" />
            <mxPoint x="946.5616222664726" y="758.1217578268497" as="targetPoint" />
            <Array as="points" />
          </mxGeometry>
        </mxCell>
        <mxCell id="VpgmclL6Frkf44dY98_w-53" value="Use" style="endArrow=open;endSize=12;dashed=1;html=1;rounded=0;entryX=0;entryY=0.5;entryDx=0;entryDy=0;exitX=1;exitY=0.5;exitDx=0;exitDy=0;strokeWidth=2;fontSize=20;" parent="1" source="VpgmclL6Frkf44dY98_w-13" target="VpgmclL6Frkf44dY98_w-12" edge="1">
          <mxGeometry width="160" relative="1" as="geometry">
            <mxPoint x="717" y="-90" as="sourcePoint" />
            <mxPoint x="877" y="-90" as="targetPoint" />
          </mxGeometry>
        </mxCell>
        <mxCell id="VpgmclL6Frkf44dY98_w-54" value="Use" style="endArrow=open;endSize=12;dashed=1;html=1;rounded=0;exitX=1;exitY=0.5;exitDx=0;exitDy=0;strokeWidth=2;fontSize=20;" parent="1" source="VpgmclL6Frkf44dY98_w-16" edge="1">
          <mxGeometry width="160" relative="1" as="geometry">
            <mxPoint x="842" y="-190" as="sourcePoint" />
            <mxPoint x="1275" y="160" as="targetPoint" />
          </mxGeometry>
        </mxCell>
        <mxCell id="VpgmclL6Frkf44dY98_w-55" value="Use" style="endArrow=open;endSize=12;dashed=1;html=1;rounded=0;entryX=0.054;entryY=0.311;entryDx=0;entryDy=0;exitX=0.965;exitY=0.688;exitDx=0;exitDy=0;exitPerimeter=0;entryPerimeter=0;strokeWidth=2;fontSize=20;" parent="1" source="VpgmclL6Frkf44dY98_w-11" target="VpgmclL6Frkf44dY98_w-12" edge="1">
          <mxGeometry width="160" relative="1" as="geometry">
            <mxPoint x="814.5" y="-156.65" as="sourcePoint" />
            <mxPoint x="1265.841" y="166.65000000000018" as="targetPoint" />
          </mxGeometry>
        </mxCell>
        <mxCell id="VpgmclL6Frkf44dY98_w-56" value="Use" style="endArrow=open;endSize=12;dashed=1;html=1;rounded=0;entryX=0;entryY=0;entryDx=0;entryDy=0;exitX=1;exitY=1;exitDx=0;exitDy=0;strokeWidth=2;fontSize=20;" parent="1" source="VpgmclL6Frkf44dY98_w-10" target="VpgmclL6Frkf44dY98_w-12" edge="1">
          <mxGeometry width="160" relative="1" as="geometry">
            <mxPoint x="844.8699999999999" y="-471.00000000000045" as="sourcePoint" />
            <mxPoint x="1217.7699999999995" y="-359" as="targetPoint" />
          </mxGeometry>
        </mxCell>
        <mxCell id="VpgmclL6Frkf44dY98_w-59" value="Use" style="endArrow=open;endSize=12;dashed=1;html=1;rounded=0;exitX=0.963;exitY=0.301;exitDx=0;exitDy=0;exitPerimeter=0;strokeWidth=2;fontSize=20;" parent="1" source="VpgmclL6Frkf44dY98_w-36" edge="1">
          <mxGeometry width="160" relative="1" as="geometry">
            <mxPoint x="847" y="-70" as="sourcePoint" />
            <mxPoint x="1290" y="170" as="targetPoint" />
          </mxGeometry>
        </mxCell>
        <mxCell id="VpgmclL6Frkf44dY98_w-60" value="Use" style="endArrow=open;endSize=12;dashed=1;html=1;rounded=0;exitX=1;exitY=0.5;exitDx=0;exitDy=0;strokeWidth=2;fontSize=20;" parent="1" source="VpgmclL6Frkf44dY98_w-14" edge="1">
          <mxGeometry width="160" relative="1" as="geometry">
            <mxPoint x="820" y="30" as="sourcePoint" />
            <mxPoint x="1310" y="170" as="targetPoint" />
          </mxGeometry>
        </mxCell>
        <mxCell id="VpgmclL6Frkf44dY98_w-61" value="Use" style="endArrow=open;endSize=12;dashed=1;html=1;rounded=0;entryX=0;entryY=1;entryDx=0;entryDy=0;exitX=0.994;exitY=0.365;exitDx=0;exitDy=0;exitPerimeter=0;strokeWidth=2;fontSize=20;" parent="1" source="VpgmclL6Frkf44dY98_w-41" target="VpgmclL6Frkf44dY98_w-12" edge="1">
          <mxGeometry width="160" relative="1" as="geometry">
            <mxPoint x="817" y="180" as="sourcePoint" />
            <mxPoint x="1227" y="-290" as="targetPoint" />
          </mxGeometry>
        </mxCell>
        <mxCell id="VpgmclL6Frkf44dY98_w-62" value="Use" style="endArrow=open;endSize=12;dashed=1;html=1;rounded=0;entryX=0.189;entryY=0.899;entryDx=0;entryDy=0;exitX=1;exitY=0.5;exitDx=0;exitDy=0;entryPerimeter=0;strokeWidth=2;fontSize=20;" parent="1" source="VpgmclL6Frkf44dY98_w-19" target="VpgmclL6Frkf44dY98_w-12" edge="1">
          <mxGeometry width="160" relative="1" as="geometry">
            <mxPoint x="815" y="336" as="sourcePoint" />
            <mxPoint x="1237" y="-280" as="targetPoint" />
          </mxGeometry>
        </mxCell>
        <mxCell id="VpgmclL6Frkf44dY98_w-63" value="Use" style="endArrow=open;endSize=12;dashed=1;html=1;rounded=0;entryX=0.263;entryY=0.912;entryDx=0;entryDy=0;exitX=1;exitY=0.5;exitDx=0;exitDy=0;entryPerimeter=0;strokeWidth=2;fontSize=20;" parent="1" source="VpgmclL6Frkf44dY98_w-17" target="VpgmclL6Frkf44dY98_w-12" edge="1">
          <mxGeometry width="160" relative="1" as="geometry">
            <mxPoint x="804.4299999999998" y="594.8000000000002" as="sourcePoint" />
            <mxPoint x="1266" y="-280" as="targetPoint" />
          </mxGeometry>
        </mxCell>
        <mxCell id="VpgmclL6Frkf44dY98_w-64" value="Use" style="endArrow=open;endSize=12;dashed=1;html=1;rounded=0;entryX=0.297;entryY=0.924;entryDx=0;entryDy=0;exitX=1;exitY=0.5;exitDx=0;exitDy=0;entryPerimeter=0;strokeWidth=2;fontSize=20;" parent="1" source="VpgmclL6Frkf44dY98_w-18" target="VpgmclL6Frkf44dY98_w-12" edge="1">
          <mxGeometry width="160" relative="1" as="geometry">
            <mxPoint x="814.4299999999998" y="604.8000000000002" as="sourcePoint" />
            <mxPoint x="1284" y="-279" as="targetPoint" />
          </mxGeometry>
        </mxCell>
        <mxCell id="VpgmclL6Frkf44dY98_w-65" value="Use" style="endArrow=open;endSize=12;dashed=1;html=1;rounded=0;entryX=0.703;entryY=0.948;entryDx=0;entryDy=0;entryPerimeter=0;strokeWidth=2;fontSize=20;" parent="1" source="VpgmclL6Frkf44dY98_w-46" target="VpgmclL6Frkf44dY98_w-12" edge="1">
          <mxGeometry width="160" relative="1" as="geometry">
            <mxPoint x="852" y="717" as="sourcePoint" />
            <mxPoint x="1295" y="-278" as="targetPoint" />
          </mxGeometry>
        </mxCell>
        <mxCell id="VpgmclL6Frkf44dY98_w-68" value="Use" style="endArrow=open;endSize=12;dashed=1;html=1;rounded=0;exitX=0.947;exitY=0.324;exitDx=0;exitDy=0;exitPerimeter=0;strokeWidth=2;fontSize=20;" parent="1" source="VpgmclL6Frkf44dY98_w-20" edge="1">
          <mxGeometry width="160" relative="1" as="geometry">
            <mxPoint x="1132" y="740" as="sourcePoint" />
            <mxPoint x="1390" y="170" as="targetPoint" />
          </mxGeometry>
        </mxCell>
        <mxCell id="VpgmclL6Frkf44dY98_w-69" value="Use" style="endArrow=open;endSize=12;dashed=1;html=1;rounded=0;entryX=0.416;entryY=1.022;entryDx=0;entryDy=0;entryPerimeter=0;exitX=0.924;exitY=0.2;exitDx=0;exitDy=0;exitPerimeter=0;strokeWidth=2;fontSize=20;" parent="1" source="VpgmclL6Frkf44dY98_w-21" target="VpgmclL6Frkf44dY98_w-12" edge="1">
          <mxGeometry width="160" relative="1" as="geometry">
            <mxPoint x="887" y="958" as="sourcePoint" />
            <mxPoint x="1316" y="-280" as="targetPoint" />
          </mxGeometry>
        </mxCell>
        <mxCell id="VpgmclL6Frkf44dY98_w-72" value="Use" style="endArrow=open;endSize=12;dashed=1;html=1;rounded=0;entryX=0.569;entryY=0.985;entryDx=0;entryDy=0;entryPerimeter=0;exitX=1;exitY=0.5;exitDx=0;exitDy=0;strokeWidth=2;fontSize=20;" parent="1" source="VpgmclL6Frkf44dY98_w-47" target="VpgmclL6Frkf44dY98_w-12" edge="1">
          <mxGeometry width="160" relative="1" as="geometry">
            <mxPoint x="773" y="1398" as="sourcePoint" />
            <mxPoint x="1210" y="162" as="targetPoint" />
          </mxGeometry>
        </mxCell>
        <mxCell id="VpgmclL6Frkf44dY98_w-73" value="Use" style="endArrow=open;endSize=12;dashed=1;html=1;rounded=0;strokeWidth=2;fontSize=20;exitX=0;exitY=1;exitDx=0;exitDy=0;entryX=0.401;entryY=0.044;entryDx=0;entryDy=0;entryPerimeter=0;" parent="1" source="VpgmclL6Frkf44dY98_w-22" target="VpgmclL6Frkf44dY98_w-12" edge="1">
          <mxGeometry width="160" relative="1" as="geometry">
            <mxPoint x="1497" y="-400" as="sourcePoint" />
            <mxPoint x="1330" y="75" as="targetPoint" />
          </mxGeometry>
        </mxCell>
        <mxCell id="VpgmclL6Frkf44dY98_w-79" value="Use" style="endArrow=open;endSize=12;dashed=1;html=1;rounded=0;exitX=1;exitY=0.5;exitDx=0;exitDy=0;strokeWidth=2;fontSize=20;" parent="1" source="VpgmclL6Frkf44dY98_w-15" edge="1">
          <mxGeometry width="160" relative="1" as="geometry">
            <mxPoint x="1747" y="735" as="sourcePoint" />
            <mxPoint x="1290" y="160" as="targetPoint" />
          </mxGeometry>
        </mxCell>
        <mxCell id="VpgmclL6Frkf44dY98_w-80" value="" style="endArrow=none;html=1;rounded=0;entryX=0.041;entryY=0.703;entryDx=0;entryDy=0;entryPerimeter=0;strokeWidth=2;fontSize=20;" parent="1" target="VpgmclL6Frkf44dY98_w-15" edge="1">
          <mxGeometry width="50" height="50" relative="1" as="geometry">
            <mxPoint x="277" y="210" as="sourcePoint" />
            <mxPoint x="512" y="-190" as="targetPoint" />
          </mxGeometry>
        </mxCell>
        <mxCell id="iCOo2CPXerIBy9ZFp_m0-2" value="" style="endArrow=block;dashed=1;endFill=0;endSize=12;html=1;rounded=0;strokeWidth=2;fontSize=20;" parent="1" source="VpgmclL6Frkf44dY98_w-41" target="VpgmclL6Frkf44dY98_w-14" edge="1">
          <mxGeometry width="160" relative="1" as="geometry">
            <mxPoint x="667" y="420" as="sourcePoint" />
            <mxPoint x="827" y="420" as="targetPoint" />
          </mxGeometry>
        </mxCell>
        <mxCell id="iCOo2CPXerIBy9ZFp_m0-3" value="" style="endArrow=block;dashed=1;endFill=0;endSize=12;html=1;rounded=0;exitX=0.364;exitY=0;exitDx=0;exitDy=0;exitPerimeter=0;strokeWidth=2;fontSize=20;" parent="1" source="VpgmclL6Frkf44dY98_w-46" target="VpgmclL6Frkf44dY98_w-14" edge="1">
          <mxGeometry width="160" relative="1" as="geometry">
            <mxPoint x="1465.2600000000002" y="969.1000000000004" as="sourcePoint" />
            <mxPoint x="669" y="287" as="targetPoint" />
          </mxGeometry>
        </mxCell>
        <mxCell id="zwcXZ0TuJRXEdvrgDjS8-14" value="Use" style="endArrow=open;endSize=12;dashed=1;html=1;rounded=0;strokeWidth=2;fontSize=20;entryX=0.728;entryY=0.133;entryDx=0;entryDy=0;entryPerimeter=0;" parent="1" source="VpgmclL6Frkf44dY98_w-6" target="VpgmclL6Frkf44dY98_w-12" edge="1">
          <mxGeometry width="160" relative="1" as="geometry">
            <mxPoint x="1711" y="-690" as="sourcePoint" />
            <mxPoint x="1544" y="-215" as="targetPoint" />
          </mxGeometry>
        </mxCell>
        <mxCell id="zwcXZ0TuJRXEdvrgDjS8-15" value="Use" style="endArrow=open;endSize=12;dashed=1;html=1;rounded=0;strokeWidth=2;fontSize=20;exitX=0.32;exitY=1;exitDx=0;exitDy=0;entryX=0.331;entryY=0.111;entryDx=0;entryDy=0;entryPerimeter=0;exitPerimeter=0;" parent="1" source="VpgmclL6Frkf44dY98_w-27" target="VpgmclL6Frkf44dY98_w-12" edge="1">
          <mxGeometry width="160" relative="1" as="geometry">
            <mxPoint x="1400" y="-500" as="sourcePoint" />
            <mxPoint x="1233" y="-25" as="targetPoint" />
          </mxGeometry>
        </mxCell>
        <mxCell id="zwcXZ0TuJRXEdvrgDjS8-16" value="Use" style="endArrow=open;endSize=12;dashed=1;html=1;rounded=0;strokeWidth=2;fontSize=20;exitX=0.5;exitY=1;exitDx=0;exitDy=0;entryX=0.245;entryY=0.156;entryDx=0;entryDy=0;entryPerimeter=0;" parent="1" source="VpgmclL6Frkf44dY98_w-5" target="VpgmclL6Frkf44dY98_w-12" edge="1">
          <mxGeometry width="160" relative="1" as="geometry">
            <mxPoint x="1270" y="-600" as="sourcePoint" />
            <mxPoint x="1103" y="-125" as="targetPoint" />
          </mxGeometry>
        </mxCell>
        <mxCell id="zwcXZ0TuJRXEdvrgDjS8-17" value="Use" style="endArrow=open;endSize=12;dashed=1;html=1;rounded=0;strokeWidth=2;fontSize=20;" parent="1" edge="1">
          <mxGeometry width="160" relative="1" as="geometry">
            <mxPoint x="1125" y="-725" as="sourcePoint" />
            <mxPoint x="1340" y="80" as="targetPoint" />
          </mxGeometry>
        </mxCell>
        <mxCell id="zwcXZ0TuJRXEdvrgDjS8-18" value="Extends" style="endArrow=block;endSize=16;endFill=0;html=1;rounded=0;exitX=0.432;exitY=0.971;exitDx=0;exitDy=0;exitPerimeter=0;entryX=0.5;entryY=0;entryDx=0;entryDy=0;fontSize=20;" parent="1" source="VpgmclL6Frkf44dY98_w-27" target="VpgmclL6Frkf44dY98_w-22" edge="1">
          <mxGeometry width="160" relative="1" as="geometry">
            <mxPoint x="1500" y="-270" as="sourcePoint" />
            <mxPoint x="1660" y="-270" as="targetPoint" />
          </mxGeometry>
        </mxCell>
        <mxCell id="zwcXZ0TuJRXEdvrgDjS8-19" value="Extends" style="endArrow=block;endSize=16;endFill=0;html=1;rounded=0;exitX=0.36;exitY=0;exitDx=0;exitDy=0;exitPerimeter=0;entryX=0.79;entryY=0.971;entryDx=0;entryDy=0;entryPerimeter=0;fontSize=20;" parent="1" source="VpgmclL6Frkf44dY98_w-27" target="VpgmclL6Frkf44dY98_w-5" edge="1">
          <mxGeometry width="160" relative="1" as="geometry">
            <mxPoint x="1440" y="-570" as="sourcePoint" />
            <mxPoint x="1537" y="-518" as="targetPoint" />
          </mxGeometry>
        </mxCell>
        <mxCell id="zwcXZ0TuJRXEdvrgDjS8-21" value="" style="endArrow=block;dashed=1;endFill=0;endSize=12;html=1;rounded=0;exitX=0.5;exitY=0;exitDx=0;exitDy=0;fontSize=20;" parent="1" source="VpgmclL6Frkf44dY98_w-6" target="VpgmclL6Frkf44dY98_w-22" edge="1">
          <mxGeometry width="160" relative="1" as="geometry">
            <mxPoint x="1500" y="-270" as="sourcePoint" />
            <mxPoint x="1660" y="-270" as="targetPoint" />
          </mxGeometry>
        </mxCell>
        <mxCell id="lKP4GF6vWRbdKaE7gU3P-4" style="edgeStyle=orthogonalEdgeStyle;rounded=0;orthogonalLoop=1;jettySize=auto;html=1;exitX=0.5;exitY=1;exitDx=0;exitDy=0;" parent="1" source="VpgmclL6Frkf44dY98_w-5" target="VpgmclL6Frkf44dY98_w-5" edge="1">
          <mxGeometry relative="1" as="geometry" />
        </mxCell>
      </root>
    </mxGraphModel>
  </diagram>
  <diagram id="U5boLe5yPfpB3viaotXQ" name="Class Diagram">
    <mxGraphModel dx="1542" dy="817" grid="1" gridSize="10" guides="1" tooltips="1" connect="1" arrows="1" fold="1" page="1" pageScale="1" pageWidth="850" pageHeight="1100" math="0" shadow="0">
      <root>
        <mxCell id="0" />
        <mxCell id="1" parent="0" />
        <mxCell id="ZRR8weSzxKWpVdQqv_0j-1" value="Authenticator" style="rounded=0;whiteSpace=wrap;html=1;" parent="1" vertex="1">
          <mxGeometry x="72" y="40" width="120" height="60" as="geometry" />
        </mxCell>
        <mxCell id="ZRR8weSzxKWpVdQqv_0j-2" value="Admin" style="rounded=0;whiteSpace=wrap;html=1;" parent="1" vertex="1">
          <mxGeometry x="295" y="273" width="120" height="60" as="geometry" />
        </mxCell>
        <mxCell id="ZRR8weSzxKWpVdQqv_0j-3" value="costCalculator" style="rounded=0;whiteSpace=wrap;html=1;" parent="1" vertex="1">
          <mxGeometry x="860" y="40" width="120" height="60" as="geometry" />
        </mxCell>
        <mxCell id="ZRR8weSzxKWpVdQqv_0j-4" value="Validator" style="rounded=0;whiteSpace=wrap;html=1;" parent="1" vertex="1">
          <mxGeometry x="40" y="438" width="120" height="60" as="geometry" />
        </mxCell>
        <mxCell id="ZRR8weSzxKWpVdQqv_0j-5" value="User" style="rounded=0;whiteSpace=wrap;html=1;" parent="1" vertex="1">
          <mxGeometry x="378" y="180" width="120" height="60" as="geometry" />
        </mxCell>
        <mxCell id="ZRR8weSzxKWpVdQqv_0j-6" value="Message" style="rounded=0;whiteSpace=wrap;html=1;" parent="1" vertex="1">
          <mxGeometry x="1066" y="140" width="120" height="60" as="geometry" />
        </mxCell>
        <mxCell id="ZRR8weSzxKWpVdQqv_0j-7" value="SocialAuthentication" style="rounded=0;whiteSpace=wrap;html=1;" parent="1" vertex="1">
          <mxGeometry x="2" y="320" width="120" height="60" as="geometry" />
        </mxCell>
        <mxCell id="ZRR8weSzxKWpVdQqv_0j-8" value="GoogleAuthentication" style="rounded=0;whiteSpace=wrap;html=1;" parent="1" vertex="1">
          <mxGeometry x="146" y="320" width="120" height="60" as="geometry" />
        </mxCell>
        <mxCell id="ZRR8weSzxKWpVdQqv_0j-9" value="SuperAdmin" style="rounded=0;whiteSpace=wrap;html=1;" parent="1" vertex="1">
          <mxGeometry x="295" y="390" width="120" height="60" as="geometry" />
        </mxCell>
        <mxCell id="ZRR8weSzxKWpVdQqv_0j-10" value="BasicUser" style="rounded=0;whiteSpace=wrap;html=1;" parent="1" vertex="1">
          <mxGeometry x="500" y="272" width="120" height="60" as="geometry" />
        </mxCell>
        <mxCell id="ZRR8weSzxKWpVdQqv_0j-11" value="Driver" style="rounded=0;whiteSpace=wrap;html=1;" parent="1" vertex="1">
          <mxGeometry x="614" y="390" width="120" height="60" as="geometry" />
        </mxCell>
        <mxCell id="ZRR8weSzxKWpVdQqv_0j-12" value="goodMessage" style="rounded=0;whiteSpace=wrap;html=1;" parent="1" vertex="1">
          <mxGeometry x="846" y="320" width="120" height="60" as="geometry" />
        </mxCell>
        <mxCell id="ZRR8weSzxKWpVdQqv_0j-13" value="Alert" style="rounded=0;whiteSpace=wrap;html=1;" parent="1" vertex="1">
          <mxGeometry x="1007" y="320" width="120" height="60" as="geometry" />
        </mxCell>
        <mxCell id="ZRR8weSzxKWpVdQqv_0j-14" value="abus" style="rounded=0;whiteSpace=wrap;html=1;" parent="1" vertex="1">
          <mxGeometry x="1148" y="320" width="120" height="60" as="geometry" />
        </mxCell>
        <mxCell id="ZRR8weSzxKWpVdQqv_0j-15" value="flashMessage" style="rounded=0;whiteSpace=wrap;html=1;" parent="1" vertex="1">
          <mxGeometry x="1310" y="320" width="120" height="60" as="geometry" />
        </mxCell>
        <mxCell id="ZRR8weSzxKWpVdQqv_0j-16" value="PlaceProvider" style="rounded=0;whiteSpace=wrap;html=1;" parent="1" vertex="1">
          <mxGeometry x="734" y="592" width="120" height="60" as="geometry" />
        </mxCell>
        <mxCell id="ZRR8weSzxKWpVdQqv_0j-17" value="ItineraryProvider" style="rounded=0;whiteSpace=wrap;html=1;" parent="1" vertex="1">
          <mxGeometry x="880" y="593" width="120" height="60" as="geometry" />
        </mxCell>
        <mxCell id="ZRR8weSzxKWpVdQqv_0j-18" value="localisable" style="rounded=0;whiteSpace=wrap;html=1;" parent="1" vertex="1">
          <mxGeometry x="460" y="522" width="120" height="60" as="geometry" />
        </mxCell>
        <mxCell id="ZRR8weSzxKWpVdQqv_0j-19" value="Itinerary" style="rounded=0;whiteSpace=wrap;html=1;" parent="1" vertex="1">
          <mxGeometry x="410" y="662" width="120" height="60" as="geometry" />
        </mxCell>
        <mxCell id="ZRR8weSzxKWpVdQqv_0j-20" value="Place" style="rounded=0;whiteSpace=wrap;html=1;" parent="1" vertex="1">
          <mxGeometry x="560" y="662" width="120" height="60" as="geometry" />
        </mxCell>
        <mxCell id="ZRR8weSzxKWpVdQqv_0j-23" style="rounded=0;orthogonalLoop=1;jettySize=auto;endArrow=block;endFill=0;" parent="1" source="ZRR8weSzxKWpVdQqv_0j-5" target="ZRR8weSzxKWpVdQqv_0j-2" edge="1">
          <mxGeometry relative="1" as="geometry" />
        </mxCell>
        <mxCell id="ZRR8weSzxKWpVdQqv_0j-27" style="rounded=0;orthogonalLoop=1;jettySize=auto;exitX=0.25;exitY=1;exitDx=0;exitDy=0;endArrow=block;endFill=0;" parent="1" source="ZRR8weSzxKWpVdQqv_0j-6" edge="1">
          <mxGeometry relative="1" as="geometry">
            <mxPoint x="1019" y="210" as="sourcePoint" />
            <mxPoint x="905" y="320" as="targetPoint" />
          </mxGeometry>
        </mxCell>
        <mxCell id="ZRR8weSzxKWpVdQqv_0j-29" style="rounded=0;orthogonalLoop=1;jettySize=auto;endArrow=block;endFill=0;" parent="1" target="ZRR8weSzxKWpVdQqv_0j-14" edge="1">
          <mxGeometry relative="1" as="geometry">
            <mxPoint x="1143" y="200" as="sourcePoint" />
          </mxGeometry>
        </mxCell>
        <mxCell id="ZRR8weSzxKWpVdQqv_0j-34" value="" style="endArrow=block;html=1;rounded=0;entryX=0.25;entryY=1;entryDx=0;entryDy=0;exitX=0.39;exitY=0.022;exitDx=0;exitDy=0;exitPerimeter=0;endFill=0;" parent="1" source="ZRR8weSzxKWpVdQqv_0j-7" target="ZRR8weSzxKWpVdQqv_0j-1" edge="1">
          <mxGeometry width="50" height="50" relative="1" as="geometry">
            <mxPoint x="40" y="300" as="sourcePoint" />
            <mxPoint x="90" y="250" as="targetPoint" />
          </mxGeometry>
        </mxCell>
        <mxCell id="ZRR8weSzxKWpVdQqv_0j-35" value="" style="endArrow=block;html=1;rounded=0;entryX=0.317;entryY=1.06;entryDx=0;entryDy=0;entryPerimeter=0;endFill=0;" parent="1" edge="1">
          <mxGeometry width="50" height="50" relative="1" as="geometry">
            <mxPoint x="190" y="320" as="sourcePoint" />
            <mxPoint x="148" y="100" as="targetPoint" />
          </mxGeometry>
        </mxCell>
        <mxCell id="1IUmuBWIxTCDtrARWm-O-1" value="" style="endArrow=block;html=1;rounded=0;entryX=0.25;entryY=1;entryDx=0;entryDy=0;endFill=0;" parent="1" edge="1">
          <mxGeometry width="50" height="50" relative="1" as="geometry">
            <mxPoint x="480" y="663" as="sourcePoint" />
            <mxPoint x="496.5" y="582.5" as="targetPoint" />
          </mxGeometry>
        </mxCell>
        <mxCell id="1IUmuBWIxTCDtrARWm-O-2" value="" style="endArrow=block;html=1;rounded=0;entryX=0.317;entryY=1.06;entryDx=0;entryDy=0;entryPerimeter=0;exitX=0.25;exitY=0;exitDx=0;exitDy=0;endFill=0;" parent="1" edge="1">
          <mxGeometry width="50" height="50" relative="1" as="geometry">
            <mxPoint x="589.9999999999998" y="663" as="sourcePoint" />
            <mxPoint x="560" y="583" as="targetPoint" />
          </mxGeometry>
        </mxCell>
        <mxCell id="1IUmuBWIxTCDtrARWm-O-3" value="localisableProvider" style="rounded=0;whiteSpace=wrap;html=1;" parent="1" vertex="1">
          <mxGeometry x="816" y="470" width="120" height="60" as="geometry" />
        </mxCell>
        <mxCell id="1IUmuBWIxTCDtrARWm-O-4" value="" style="endArrow=block;html=1;rounded=0;entryX=0.25;entryY=1;entryDx=0;entryDy=0;endFill=0;" parent="1" edge="1">
          <mxGeometry width="50" height="50" relative="1" as="geometry">
            <mxPoint x="816" y="590" as="sourcePoint" />
            <mxPoint x="832.5" y="530" as="targetPoint" />
          </mxGeometry>
        </mxCell>
        <mxCell id="1IUmuBWIxTCDtrARWm-O-5" value="" style="endArrow=block;html=1;rounded=0;entryX=0.317;entryY=1.06;entryDx=0;entryDy=0;entryPerimeter=0;endFill=0;" parent="1" edge="1">
          <mxGeometry width="50" height="50" relative="1" as="geometry">
            <mxPoint x="924" y="590" as="sourcePoint" />
            <mxPoint x="906" y="530" as="targetPoint" />
          </mxGeometry>
        </mxCell>
        <mxCell id="1IUmuBWIxTCDtrARWm-O-6" value="driverValidator" style="rounded=0;whiteSpace=wrap;html=1;" parent="1" vertex="1">
          <mxGeometry x="40" y="580" width="120" height="60" as="geometry" />
        </mxCell>
        <mxCell id="1IUmuBWIxTCDtrARWm-O-7" value="" style="endArrow=block;html=1;rounded=0;entryX=0.317;entryY=1.06;entryDx=0;entryDy=0;entryPerimeter=0;exitX=0.651;exitY=0.03;exitDx=0;exitDy=0;exitPerimeter=0;endFill=0;" parent="1" edge="1">
          <mxGeometry width="50" height="50" relative="1" as="geometry">
            <mxPoint x="99.56000000000012" y="580" as="sourcePoint" />
            <mxPoint x="99.44" y="498.2" as="targetPoint" />
          </mxGeometry>
        </mxCell>
        <mxCell id="1IUmuBWIxTCDtrARWm-O-8" style="rounded=0;orthogonalLoop=1;jettySize=auto;exitX=0.408;exitY=1.021;exitDx=0;exitDy=0;entryX=0.5;entryY=0;entryDx=0;entryDy=0;exitPerimeter=0;endArrow=block;endFill=0;" parent="1" source="ZRR8weSzxKWpVdQqv_0j-6" target="ZRR8weSzxKWpVdQqv_0j-13" edge="1">
          <mxGeometry relative="1" as="geometry">
            <mxPoint x="1140.5" y="200" as="sourcePoint" />
            <mxPoint x="949.5" y="320" as="targetPoint" />
          </mxGeometry>
        </mxCell>
        <mxCell id="1IUmuBWIxTCDtrARWm-O-9" style="rounded=0;orthogonalLoop=1;jettySize=auto;endArrow=block;endFill=0;" parent="1" edge="1">
          <mxGeometry relative="1" as="geometry">
            <mxPoint x="1169" y="200" as="sourcePoint" />
            <mxPoint x="1340" y="317" as="targetPoint" />
          </mxGeometry>
        </mxCell>
        <mxCell id="1IUmuBWIxTCDtrARWm-O-10" style="rounded=0;orthogonalLoop=1;jettySize=auto;endArrow=block;endFill=0;" parent="1" edge="1">
          <mxGeometry relative="1" as="geometry">
            <mxPoint x="470" y="240" as="sourcePoint" />
            <mxPoint x="520" y="272" as="targetPoint" />
          </mxGeometry>
        </mxCell>
        <mxCell id="1IUmuBWIxTCDtrARWm-O-11" value="" style="endArrow=block;html=1;rounded=0;entryX=0.317;entryY=1.06;entryDx=0;entryDy=0;entryPerimeter=0;exitX=0.5;exitY=0;exitDx=0;exitDy=0;endFill=0;" parent="1" source="ZRR8weSzxKWpVdQqv_0j-9" edge="1">
          <mxGeometry width="50" height="50" relative="1" as="geometry">
            <mxPoint x="354" y="380" as="sourcePoint" />
            <mxPoint x="354.38" y="332" as="targetPoint" />
          </mxGeometry>
        </mxCell>
        <mxCell id="1IUmuBWIxTCDtrARWm-O-12" value="Customer" style="rounded=0;whiteSpace=wrap;html=1;" parent="1" vertex="1">
          <mxGeometry x="460" y="390" width="120" height="60" as="geometry" />
        </mxCell>
        <mxCell id="1IUmuBWIxTCDtrARWm-O-13" value="" style="endArrow=block;html=1;rounded=0;entryX=0.75;entryY=1;entryDx=0;entryDy=0;exitX=0.25;exitY=0;exitDx=0;exitDy=0;endFill=0;" parent="1" source="ZRR8weSzxKWpVdQqv_0j-11" target="ZRR8weSzxKWpVdQqv_0j-10" edge="1">
          <mxGeometry width="50" height="50" relative="1" as="geometry">
            <mxPoint x="636" y="398" as="sourcePoint" />
            <mxPoint x="618" y="338" as="targetPoint" />
          </mxGeometry>
        </mxCell>
        <mxCell id="1IUmuBWIxTCDtrARWm-O-14" value="" style="endArrow=block;html=1;rounded=0;entryX=0.25;entryY=1;entryDx=0;entryDy=0;exitX=0.25;exitY=0;exitDx=0;exitDy=0;endFill=0;" parent="1" source="1IUmuBWIxTCDtrARWm-O-12" edge="1">
          <mxGeometry width="50" height="50" relative="1" as="geometry">
            <mxPoint x="513.5" y="413.5" as="sourcePoint" />
            <mxPoint x="530" y="333" as="targetPoint" />
          </mxGeometry>
        </mxCell>
        <mxCell id="1IUmuBWIxTCDtrARWm-O-15" value="subscription" style="rounded=0;whiteSpace=wrap;html=1;" parent="1" vertex="1">
          <mxGeometry x="614" y="30" width="120" height="60" as="geometry" />
        </mxCell>
        <mxCell id="1IUmuBWIxTCDtrARWm-O-16" value="Premium" style="rounded=0;whiteSpace=wrap;html=1;" parent="1" vertex="1">
          <mxGeometry x="540" y="140" width="120" height="60" as="geometry" />
        </mxCell>
        <mxCell id="1IUmuBWIxTCDtrARWm-O-17" value="Freemium" style="rounded=0;whiteSpace=wrap;html=1;" parent="1" vertex="1">
          <mxGeometry x="710" y="140" width="120" height="60" as="geometry" />
        </mxCell>
        <mxCell id="1IUmuBWIxTCDtrARWm-O-18" value="" style="endArrow=block;html=1;rounded=0;entryX=0.25;entryY=1;entryDx=0;entryDy=0;endFill=0;" parent="1" edge="1">
          <mxGeometry width="50" height="50" relative="1" as="geometry">
            <mxPoint x="590" y="140" as="sourcePoint" />
            <mxPoint x="645" y="90" as="targetPoint" />
          </mxGeometry>
        </mxCell>
        <mxCell id="1IUmuBWIxTCDtrARWm-O-19" value="" style="endArrow=block;html=1;rounded=0;entryX=0.75;entryY=1;entryDx=0;entryDy=0;exitX=0.25;exitY=0;exitDx=0;exitDy=0;endFill=0;" parent="1" source="1IUmuBWIxTCDtrARWm-O-17" edge="1">
          <mxGeometry width="50" height="50" relative="1" as="geometry">
            <mxPoint x="762" y="148" as="sourcePoint" />
            <mxPoint x="708" y="90" as="targetPoint" />
          </mxGeometry>
        </mxCell>
        <mxCell id="1IUmuBWIxTCDtrARWm-O-21" value="&amp;lt;&amp;lt;abstract&amp;gt;&amp;gt;" style="text;html=1;align=center;verticalAlign=middle;whiteSpace=wrap;rounded=0;" parent="1" vertex="1">
          <mxGeometry x="644" width="60" height="30" as="geometry" />
        </mxCell>
        <mxCell id="1IUmuBWIxTCDtrARWm-O-22" value="&amp;lt;&amp;lt;abstract&amp;gt;&amp;gt;" style="text;html=1;align=center;verticalAlign=middle;whiteSpace=wrap;rounded=0;" parent="1" vertex="1">
          <mxGeometry x="407" y="152" width="60" height="30" as="geometry" />
        </mxCell>
        <mxCell id="1IUmuBWIxTCDtrARWm-O-23" value="&amp;lt;&amp;lt;abstract&amp;gt;&amp;gt;" style="text;html=1;align=center;verticalAlign=middle;whiteSpace=wrap;rounded=0;" parent="1" vertex="1">
          <mxGeometry x="540" y="245" width="60" height="30" as="geometry" />
        </mxCell>
        <mxCell id="1IUmuBWIxTCDtrARWm-O-24" value="&amp;lt;&amp;lt;abstract&amp;gt;&amp;gt;" style="text;html=1;align=center;verticalAlign=middle;whiteSpace=wrap;rounded=0;" parent="1" vertex="1">
          <mxGeometry x="490" y="492" width="60" height="30" as="geometry" />
        </mxCell>
        <mxCell id="1IUmuBWIxTCDtrARWm-O-25" value="&amp;lt;&amp;lt;abstract&amp;gt;&amp;gt;" style="text;html=1;align=center;verticalAlign=middle;whiteSpace=wrap;rounded=0;" parent="1" vertex="1">
          <mxGeometry x="850" y="440" width="60" height="30" as="geometry" />
        </mxCell>
        <mxCell id="1IUmuBWIxTCDtrARWm-O-26" value="&amp;lt;&amp;lt;abstract&amp;gt;&amp;gt;" style="text;html=1;align=center;verticalAlign=middle;whiteSpace=wrap;rounded=0;" parent="1" vertex="1">
          <mxGeometry x="100" y="10" width="60" height="30" as="geometry" />
        </mxCell>
        <mxCell id="1IUmuBWIxTCDtrARWm-O-27" value="&amp;lt;&amp;lt;abstract&amp;gt;&amp;gt;" style="text;html=1;align=center;verticalAlign=middle;whiteSpace=wrap;rounded=0;" parent="1" vertex="1">
          <mxGeometry x="70" y="410" width="60" height="30" as="geometry" />
        </mxCell>
        <mxCell id="1IUmuBWIxTCDtrARWm-O-28" value="&amp;lt;&amp;lt;abstract&amp;gt;&amp;gt;" style="text;html=1;align=center;verticalAlign=middle;whiteSpace=wrap;rounded=0;" parent="1" vertex="1">
          <mxGeometry x="1100" y="110" width="60" height="30" as="geometry" />
        </mxCell>
        <mxCell id="itsvXBhSL98g239csJK7-1" value="vehicle" style="rounded=0;whiteSpace=wrap;html=1;" parent="1" vertex="1">
          <mxGeometry x="1050" y="510" width="120" height="60" as="geometry" />
        </mxCell>
        <mxCell id="itsvXBhSL98g239csJK7-2" value="note" style="rounded=0;whiteSpace=wrap;html=1;" parent="1" vertex="1">
          <mxGeometry x="1275" y="510" width="120" height="60" as="geometry" />
        </mxCell>
      </root>
    </mxGraphModel>
  </diagram>
  <diagram name="classe mÃ©tier" id="DJt2zGncSx5huEz9p0QH">
    <mxGraphModel dx="1113" dy="590" grid="1" gridSize="10" guides="1" tooltips="1" connect="1" arrows="1" fold="1" page="1" pageScale="1" pageWidth="850" pageHeight="1100" math="0" shadow="0">
      <root>
        <mxCell id="wY5VRqUfioOa7CEe-IQm-0" />
        <mxCell id="wY5VRqUfioOa7CEe-IQm-1" parent="wY5VRqUfioOa7CEe-IQm-0" />
        <mxCell id="wY5VRqUfioOa7CEe-IQm-2" value="Authenticator" style="rounded=0;whiteSpace=wrap;html=1;" vertex="1" parent="wY5VRqUfioOa7CEe-IQm-1">
          <mxGeometry x="72" y="40" width="120" height="60" as="geometry" />
        </mxCell>
        <mxCell id="wY5VRqUfioOa7CEe-IQm-3" value="Admin" style="rounded=0;whiteSpace=wrap;html=1;" vertex="1" parent="wY5VRqUfioOa7CEe-IQm-1">
          <mxGeometry x="104" y="292" width="120" height="60" as="geometry" />
        </mxCell>
        <mxCell id="wY5VRqUfioOa7CEe-IQm-4" value="costCalculator" style="rounded=0;whiteSpace=wrap;html=1;" vertex="1" parent="wY5VRqUfioOa7CEe-IQm-1">
          <mxGeometry x="215" y="1012" width="120" height="60" as="geometry" />
        </mxCell>
        <mxCell id="wY5VRqUfioOa7CEe-IQm-5" value="Validator" style="rounded=0;whiteSpace=wrap;html=1;" vertex="1" parent="wY5VRqUfioOa7CEe-IQm-1">
          <mxGeometry x="540" y="689" width="120" height="60" as="geometry" />
        </mxCell>
        <mxCell id="wY5VRqUfioOa7CEe-IQm-6" value="User" style="rounded=0;whiteSpace=wrap;html=1;" vertex="1" parent="wY5VRqUfioOa7CEe-IQm-1">
          <mxGeometry x="378" y="180" width="120" height="60" as="geometry" />
        </mxCell>
        <mxCell id="wY5VRqUfioOa7CEe-IQm-7" value="Message" style="rounded=0;whiteSpace=wrap;html=1;" vertex="1" parent="wY5VRqUfioOa7CEe-IQm-1">
          <mxGeometry x="654" y="70" width="120" height="60" as="geometry" />
        </mxCell>
        <mxCell id="wY5VRqUfioOa7CEe-IQm-10" value="SuperAdmin" style="rounded=0;whiteSpace=wrap;html=1;" vertex="1" parent="wY5VRqUfioOa7CEe-IQm-1">
          <mxGeometry x="104" y="409" width="120" height="60" as="geometry" />
        </mxCell>
        <mxCell id="wY5VRqUfioOa7CEe-IQm-11" value="BasicUser" style="rounded=0;whiteSpace=wrap;html=1;" vertex="1" parent="wY5VRqUfioOa7CEe-IQm-1">
          <mxGeometry x="395" y="272" width="120" height="60" as="geometry" />
        </mxCell>
        <mxCell id="wY5VRqUfioOa7CEe-IQm-12" value="Driver" style="rounded=0;whiteSpace=wrap;html=1;" vertex="1" parent="wY5VRqUfioOa7CEe-IQm-1">
          <mxGeometry x="614" y="390" width="120" height="60" as="geometry" />
        </mxCell>
        <mxCell id="wY5VRqUfioOa7CEe-IQm-19" value="Localisable" style="rounded=0;whiteSpace=wrap;html=1;" vertex="1" parent="wY5VRqUfioOa7CEe-IQm-1">
          <mxGeometry x="100" y="619" width="120" height="60" as="geometry" />
        </mxCell>
        <mxCell id="wY5VRqUfioOa7CEe-IQm-20" value="Place" style="rounded=0;whiteSpace=wrap;html=1;" vertex="1" parent="wY5VRqUfioOa7CEe-IQm-1">
          <mxGeometry x="27" y="759" width="120" height="60" as="geometry" />
        </mxCell>
        <mxCell id="wY5VRqUfioOa7CEe-IQm-21" value="Itenerary" style="rounded=0;whiteSpace=wrap;html=1;" vertex="1" parent="wY5VRqUfioOa7CEe-IQm-1">
          <mxGeometry x="200" y="759" width="120" height="60" as="geometry" />
        </mxCell>
        <mxCell id="wY5VRqUfioOa7CEe-IQm-22" style="rounded=0;orthogonalLoop=1;jettySize=auto;endArrow=block;endFill=0;" edge="1" parent="wY5VRqUfioOa7CEe-IQm-1" target="wY5VRqUfioOa7CEe-IQm-3">
          <mxGeometry relative="1" as="geometry">
            <mxPoint x="387.2258064516129" y="240" as="sourcePoint" />
          </mxGeometry>
        </mxCell>
        <mxCell id="wY5VRqUfioOa7CEe-IQm-27" value="" style="endArrow=block;html=1;rounded=0;entryX=0.25;entryY=1;entryDx=0;entryDy=0;endFill=0;" edge="1" parent="wY5VRqUfioOa7CEe-IQm-1">
          <mxGeometry width="50" height="50" relative="1" as="geometry">
            <mxPoint x="120" y="760" as="sourcePoint" />
            <mxPoint x="136.5" y="679.5" as="targetPoint" />
          </mxGeometry>
        </mxCell>
        <mxCell id="wY5VRqUfioOa7CEe-IQm-28" value="" style="endArrow=block;html=1;rounded=0;entryX=0.317;entryY=1.06;entryDx=0;entryDy=0;entryPerimeter=0;exitX=0.25;exitY=0;exitDx=0;exitDy=0;endFill=0;" edge="1" parent="wY5VRqUfioOa7CEe-IQm-1">
          <mxGeometry width="50" height="50" relative="1" as="geometry">
            <mxPoint x="229.99999999999977" y="760" as="sourcePoint" />
            <mxPoint x="200" y="680" as="targetPoint" />
          </mxGeometry>
        </mxCell>
        <mxCell id="wY5VRqUfioOa7CEe-IQm-36" style="rounded=0;orthogonalLoop=1;jettySize=auto;endArrow=block;endFill=0;" edge="1" parent="wY5VRqUfioOa7CEe-IQm-1">
          <mxGeometry relative="1" as="geometry">
            <mxPoint x="470" y="240" as="sourcePoint" />
            <mxPoint x="470" y="270" as="targetPoint" />
          </mxGeometry>
        </mxCell>
        <mxCell id="wY5VRqUfioOa7CEe-IQm-37" value="" style="endArrow=block;html=1;rounded=0;entryX=0.317;entryY=1.06;entryDx=0;entryDy=0;entryPerimeter=0;exitX=0.636;exitY=-0.024;exitDx=0;exitDy=0;endFill=0;exitPerimeter=0;" edge="1" parent="wY5VRqUfioOa7CEe-IQm-1" source="wY5VRqUfioOa7CEe-IQm-10">
          <mxGeometry width="50" height="50" relative="1" as="geometry">
            <mxPoint x="138" y="409" as="sourcePoint" />
            <mxPoint x="180.38" y="351" as="targetPoint" />
          </mxGeometry>
        </mxCell>
        <mxCell id="wY5VRqUfioOa7CEe-IQm-38" value="Customer" style="rounded=0;whiteSpace=wrap;html=1;" vertex="1" parent="wY5VRqUfioOa7CEe-IQm-1">
          <mxGeometry x="304" y="390" width="120" height="60" as="geometry" />
        </mxCell>
        <mxCell id="wY5VRqUfioOa7CEe-IQm-39" value="" style="endArrow=block;html=1;rounded=0;entryX=0.75;entryY=1;entryDx=0;entryDy=0;exitX=0.25;exitY=0;exitDx=0;exitDy=0;endFill=0;" edge="1" parent="wY5VRqUfioOa7CEe-IQm-1" source="wY5VRqUfioOa7CEe-IQm-12" target="wY5VRqUfioOa7CEe-IQm-11">
          <mxGeometry width="50" height="50" relative="1" as="geometry">
            <mxPoint x="636" y="398" as="sourcePoint" />
            <mxPoint x="618" y="338" as="targetPoint" />
          </mxGeometry>
        </mxCell>
        <mxCell id="wY5VRqUfioOa7CEe-IQm-40" value="" style="endArrow=block;html=1;rounded=0;entryX=0.25;entryY=1;entryDx=0;entryDy=0;exitX=0.25;exitY=0;exitDx=0;exitDy=0;endFill=0;" edge="1" parent="wY5VRqUfioOa7CEe-IQm-1" source="wY5VRqUfioOa7CEe-IQm-38" target="wY5VRqUfioOa7CEe-IQm-11">
          <mxGeometry width="50" height="50" relative="1" as="geometry">
            <mxPoint x="513.5" y="413.5" as="sourcePoint" />
            <mxPoint x="530" y="333" as="targetPoint" />
          </mxGeometry>
        </mxCell>
        <mxCell id="wY5VRqUfioOa7CEe-IQm-41" value="subscription" style="rounded=0;whiteSpace=wrap;html=1;" vertex="1" parent="wY5VRqUfioOa7CEe-IQm-1">
          <mxGeometry x="910" y="380" width="120" height="60" as="geometry" />
        </mxCell>
        <mxCell id="wY5VRqUfioOa7CEe-IQm-46" value="&amp;lt;&amp;lt;abstract&amp;gt;&amp;gt;" style="text;html=1;align=center;verticalAlign=middle;whiteSpace=wrap;rounded=0;" vertex="1" parent="wY5VRqUfioOa7CEe-IQm-1">
          <mxGeometry x="936" y="350" width="60" height="30" as="geometry" />
        </mxCell>
        <mxCell id="wY5VRqUfioOa7CEe-IQm-47" value="&amp;lt;&amp;lt;abstract&amp;gt;&amp;gt;" style="text;html=1;align=center;verticalAlign=middle;whiteSpace=wrap;rounded=0;" vertex="1" parent="wY5VRqUfioOa7CEe-IQm-1">
          <mxGeometry x="407" y="152" width="60" height="30" as="geometry" />
        </mxCell>
        <mxCell id="wY5VRqUfioOa7CEe-IQm-48" value="&amp;lt;&amp;lt;abstract&amp;gt;&amp;gt;" style="text;html=1;align=center;verticalAlign=middle;whiteSpace=wrap;rounded=0;" vertex="1" parent="wY5VRqUfioOa7CEe-IQm-1">
          <mxGeometry x="401" y="246" width="60" height="30" as="geometry" />
        </mxCell>
        <mxCell id="wY5VRqUfioOa7CEe-IQm-49" value="&amp;lt;&amp;lt;abstract&amp;gt;&amp;gt;" style="text;html=1;align=center;verticalAlign=middle;whiteSpace=wrap;rounded=0;" vertex="1" parent="wY5VRqUfioOa7CEe-IQm-1">
          <mxGeometry x="130" y="589" width="60" height="30" as="geometry" />
        </mxCell>
        <mxCell id="wY5VRqUfioOa7CEe-IQm-51" value="&amp;lt;&amp;lt;abstract&amp;gt;&amp;gt;" style="text;html=1;align=center;verticalAlign=middle;whiteSpace=wrap;rounded=0;" vertex="1" parent="wY5VRqUfioOa7CEe-IQm-1">
          <mxGeometry x="100" y="10" width="60" height="30" as="geometry" />
        </mxCell>
        <mxCell id="wY5VRqUfioOa7CEe-IQm-52" value="&amp;lt;&amp;lt;abstract&amp;gt;&amp;gt;" style="text;html=1;align=center;verticalAlign=middle;whiteSpace=wrap;rounded=0;" vertex="1" parent="wY5VRqUfioOa7CEe-IQm-1">
          <mxGeometry x="570" y="661" width="60" height="30" as="geometry" />
        </mxCell>
        <mxCell id="wY5VRqUfioOa7CEe-IQm-53" value="&amp;lt;&amp;lt;abstract&amp;gt;&amp;gt;" style="text;html=1;align=center;verticalAlign=middle;whiteSpace=wrap;rounded=0;" vertex="1" parent="wY5VRqUfioOa7CEe-IQm-1">
          <mxGeometry x="684" y="40" width="60" height="30" as="geometry" />
        </mxCell>
        <mxCell id="wY5VRqUfioOa7CEe-IQm-54" value="vehicle" style="rounded=0;whiteSpace=wrap;html=1;" vertex="1" parent="wY5VRqUfioOa7CEe-IQm-1">
          <mxGeometry x="1050" y="510" width="120" height="60" as="geometry" />
        </mxCell>
        <mxCell id="wY5VRqUfioOa7CEe-IQm-55" value="note" style="rounded=0;whiteSpace=wrap;html=1;" vertex="1" parent="wY5VRqUfioOa7CEe-IQm-1">
          <mxGeometry x="770" y="272" width="120" height="60" as="geometry" />
        </mxCell>
        <mxCell id="BIjjbvSEp_Kl5P5S4s8n-0" value="" style="group;rotation=90;" vertex="1" connectable="0" parent="wY5VRqUfioOa7CEe-IQm-1">
          <mxGeometry x="816" y="354" width="84" height="120" as="geometry" />
        </mxCell>
        <mxCell id="3QlFUo_fydb_3fPfYBe3-2" value="&lt;font style=&quot;font-size: 18px;&quot;&gt;faire &amp;gt;&lt;/font&gt;" style="text;strokeColor=none;align=center;fillColor=none;html=1;verticalAlign=middle;whiteSpace=wrap;rounded=0;rotation=0;" vertex="1" parent="BIjjbvSEp_Kl5P5S4s8n-0">
          <mxGeometry x="-20" y="54" width="74" height="12" as="geometry" />
        </mxCell>
        <mxCell id="4EeeiCe1b8rLPlCWZ6Gh-16" value="1,*" style="text;strokeColor=none;align=center;fillColor=none;html=1;verticalAlign=middle;whiteSpace=wrap;rounded=0;rotation=15;" vertex="1" parent="BIjjbvSEp_Kl5P5S4s8n-0">
          <mxGeometry x="-80" y="70" width="60" height="30" as="geometry" />
        </mxCell>
        <mxCell id="4EeeiCe1b8rLPlCWZ6Gh-18" value="1,*" style="text;strokeColor=none;align=center;fillColor=none;html=1;verticalAlign=middle;whiteSpace=wrap;rounded=0;" vertex="1" parent="BIjjbvSEp_Kl5P5S4s8n-0">
          <mxGeometry x="51" y="45" width="60" height="30" as="geometry" />
        </mxCell>
        <mxCell id="BIjjbvSEp_Kl5P5S4s8n-6" value="&lt;font style=&quot;font-size: 18px;&quot;&gt;possÃ©der &amp;gt;&lt;/font&gt;" style="text;strokeColor=none;align=center;fillColor=none;html=1;verticalAlign=middle;whiteSpace=wrap;rounded=0;rotation=15;" vertex="1" parent="wY5VRqUfioOa7CEe-IQm-1">
          <mxGeometry x="850" y="464" width="140" height="30" as="geometry" />
        </mxCell>
        <mxCell id="5aTVfEJ2487cJt7ooDY8-1" value="" style="endArrow=none;html=1;rounded=0;entryX=0;entryY=0.25;entryDx=0;entryDy=0;" edge="1" parent="wY5VRqUfioOa7CEe-IQm-1">
          <mxGeometry width="50" height="50" relative="1" as="geometry">
            <mxPoint x="498" y="199" as="sourcePoint" />
            <mxPoint x="654" y="83.99999999999994" as="targetPoint" />
          </mxGeometry>
        </mxCell>
        <mxCell id="3QlFUo_fydb_3fPfYBe3-0" value="" style="endArrow=none;html=1;rounded=0;entryX=0;entryY=0.75;entryDx=0;entryDy=0;exitX=1;exitY=0.5;exitDx=0;exitDy=0;" edge="1" parent="wY5VRqUfioOa7CEe-IQm-1" source="wY5VRqUfioOa7CEe-IQm-12" target="wY5VRqUfioOa7CEe-IQm-41">
          <mxGeometry width="50" height="50" relative="1" as="geometry">
            <mxPoint x="740" y="425" as="sourcePoint" />
            <mxPoint x="892" y="430" as="targetPoint" />
          </mxGeometry>
        </mxCell>
        <mxCell id="5aTVfEJ2487cJt7ooDY8-5" value="&lt;span style=&quot;font-size: 18px;&quot;&gt;envoyer &amp;gt;&lt;/span&gt;" style="text;strokeColor=none;align=center;fillColor=none;html=1;verticalAlign=middle;whiteSpace=wrap;rounded=0;rotation=-35;" vertex="1" parent="wY5VRqUfioOa7CEe-IQm-1">
          <mxGeometry x="515" y="110" width="110" height="30" as="geometry" />
        </mxCell>
        <mxCell id="5aTVfEJ2487cJt7ooDY8-6" value="" style="endArrow=none;html=1;rounded=0;exitX=1;exitY=0.5;exitDx=0;exitDy=0;" edge="1" parent="wY5VRqUfioOa7CEe-IQm-1" source="wY5VRqUfioOa7CEe-IQm-11">
          <mxGeometry width="50" height="50" relative="1" as="geometry">
            <mxPoint x="620" y="300.5" as="sourcePoint" />
            <mxPoint x="770" y="306" as="targetPoint" />
          </mxGeometry>
        </mxCell>
        <mxCell id="5aTVfEJ2487cJt7ooDY8-8" value="&lt;span style=&quot;font-size: 18px;&quot;&gt;donner &amp;gt;&lt;/span&gt;" style="text;strokeColor=none;align=center;fillColor=none;html=1;verticalAlign=middle;whiteSpace=wrap;rounded=0;rotation=0;" vertex="1" parent="wY5VRqUfioOa7CEe-IQm-1">
          <mxGeometry x="611" y="280" width="74" height="12" as="geometry" />
        </mxCell>
        <mxCell id="UyjxsEcUCUBipYQYCLdP-2" value="&lt;span style=&quot;font-size: 18px;&quot;&gt;vÃ©rifier identitÃ© &amp;gt;&lt;/span&gt;" style="text;strokeColor=none;align=center;fillColor=none;html=1;verticalAlign=middle;whiteSpace=wrap;rounded=0;rotation=30;" vertex="1" parent="wY5VRqUfioOa7CEe-IQm-1">
          <mxGeometry x="224" y="127" width="140" height="30" as="geometry" />
        </mxCell>
        <mxCell id="UyjxsEcUCUBipYQYCLdP-1" value="" style="endArrow=none;html=1;rounded=0;exitX=0;exitY=0.5;exitDx=0;exitDy=0;entryX=1;entryY=1;entryDx=0;entryDy=0;" edge="1" parent="wY5VRqUfioOa7CEe-IQm-1" source="wY5VRqUfioOa7CEe-IQm-6" target="wY5VRqUfioOa7CEe-IQm-2">
          <mxGeometry width="50" height="50" relative="1" as="geometry">
            <mxPoint x="116.5" y="280" as="sourcePoint" />
            <mxPoint x="117.5" y="190" as="targetPoint" />
          </mxGeometry>
        </mxCell>
        <mxCell id="UyjxsEcUCUBipYQYCLdP-3" value="" style="endArrow=none;html=1;rounded=0;entryX=0.386;entryY=1;entryDx=0;entryDy=0;exitX=0.833;exitY=0.017;exitDx=0;exitDy=0;exitPerimeter=0;entryPerimeter=0;" edge="1" parent="wY5VRqUfioOa7CEe-IQm-1" source="wY5VRqUfioOa7CEe-IQm-5" target="wY5VRqUfioOa7CEe-IQm-12">
          <mxGeometry width="50" height="50" relative="1" as="geometry">
            <mxPoint x="650.04" y="690.9999999999999" as="sourcePoint" />
            <mxPoint x="659.8400000000001" y="456.86000000000007" as="targetPoint" />
          </mxGeometry>
        </mxCell>
        <mxCell id="UyjxsEcUCUBipYQYCLdP-4" value="&lt;font style=&quot;font-size: 18px;&quot;&gt;vÃ©rifier piÃ¨ces &amp;gt;&lt;/font&gt;" style="text;strokeColor=none;align=center;fillColor=none;html=1;verticalAlign=middle;whiteSpace=wrap;rounded=0;rotation=-85;" vertex="1" parent="wY5VRqUfioOa7CEe-IQm-1">
          <mxGeometry x="561" y="552" width="150" height="30" as="geometry" />
        </mxCell>
        <mxCell id="UyjxsEcUCUBipYQYCLdP-6" value="" style="endArrow=none;html=1;rounded=0;entryX=1;entryY=1;entryDx=0;entryDy=0;" edge="1" parent="wY5VRqUfioOa7CEe-IQm-1">
          <mxGeometry width="50" height="50" relative="1" as="geometry">
            <mxPoint x="1050" y="527" as="sourcePoint" />
            <mxPoint x="734" y="441" as="targetPoint" />
          </mxGeometry>
        </mxCell>
        <mxCell id="UyjxsEcUCUBipYQYCLdP-7" value="" style="endArrow=none;html=1;rounded=0;entryX=0.75;entryY=1;entryDx=0;entryDy=0;" edge="1" parent="wY5VRqUfioOa7CEe-IQm-1" target="wY5VRqUfioOa7CEe-IQm-21">
          <mxGeometry width="50" height="50" relative="1" as="geometry">
            <mxPoint x="290" y="1010" as="sourcePoint" />
            <mxPoint x="275.20000000000016" y="723.6799999999998" as="targetPoint" />
          </mxGeometry>
        </mxCell>
        <mxCell id="UyjxsEcUCUBipYQYCLdP-8" value="&lt;font style=&quot;font-size: 18px;&quot;&gt;calculer coÃ»t &amp;gt;&lt;/font&gt;" style="text;strokeColor=none;align=center;fillColor=none;html=1;verticalAlign=middle;whiteSpace=wrap;rounded=0;rotation=-90;" vertex="1" parent="wY5VRqUfioOa7CEe-IQm-1">
          <mxGeometry x="180" y="900" width="170" height="30" as="geometry" />
        </mxCell>
        <mxCell id="UyjxsEcUCUBipYQYCLdP-9" value="" style="endArrow=none;html=1;rounded=0;entryX=0.5;entryY=1;entryDx=0;entryDy=0;exitX=0.917;exitY=-0.003;exitDx=0;exitDy=0;exitPerimeter=0;" edge="1" parent="wY5VRqUfioOa7CEe-IQm-1" target="wY5VRqUfioOa7CEe-IQm-38">
          <mxGeometry width="50" height="50" relative="1" as="geometry">
            <mxPoint x="280" y="758.9999999999999" as="sourcePoint" />
            <mxPoint x="349.3599999999999" y="545.9200000000001" as="targetPoint" />
          </mxGeometry>
        </mxCell>
        <mxCell id="UyjxsEcUCUBipYQYCLdP-10" value="&lt;span style=&quot;font-size: 18px;&quot;&gt;&amp;lt; gÃ©rer&lt;/span&gt;" style="text;strokeColor=none;align=center;fillColor=none;html=1;verticalAlign=middle;whiteSpace=wrap;rounded=0;rotation=-75;" vertex="1" parent="wY5VRqUfioOa7CEe-IQm-1">
          <mxGeometry x="228" y="589" width="150" height="30" as="geometry" />
        </mxCell>
        <mxCell id="UyjxsEcUCUBipYQYCLdP-15" value="" style="endArrow=none;html=1;rounded=0;entryX=0;entryY=0.5;entryDx=0;entryDy=0;exitX=1;exitY=0.5;exitDx=0;exitDy=0;" edge="1" parent="wY5VRqUfioOa7CEe-IQm-1" target="wY5VRqUfioOa7CEe-IQm-12">
          <mxGeometry width="50" height="50" relative="1" as="geometry">
            <mxPoint x="425" y="417.5" as="sourcePoint" />
            <mxPoint x="601" y="422.5" as="targetPoint" />
          </mxGeometry>
        </mxCell>
        <mxCell id="UyjxsEcUCUBipYQYCLdP-16" value="&lt;span style=&quot;font-size: 18px;&quot;&gt;&amp;lt; transporter&lt;/span&gt;" style="text;strokeColor=none;align=center;fillColor=none;html=1;verticalAlign=middle;whiteSpace=wrap;rounded=0;rotation=0;" vertex="1" parent="wY5VRqUfioOa7CEe-IQm-1">
          <mxGeometry x="461" y="390" width="124" height="12" as="geometry" />
        </mxCell>
        <mxCell id="UyjxsEcUCUBipYQYCLdP-17" value="" style="endArrow=none;html=1;rounded=0;entryX=0.069;entryY=0.981;entryDx=0;entryDy=0;entryPerimeter=0;exitX=0.174;exitY=-0.026;exitDx=0;exitDy=0;exitPerimeter=0;" edge="1" parent="wY5VRqUfioOa7CEe-IQm-1" source="wY5VRqUfioOa7CEe-IQm-20" target="wY5VRqUfioOa7CEe-IQm-38">
          <mxGeometry width="50" height="50" relative="1" as="geometry">
            <mxPoint x="160" y="552" as="sourcePoint" />
            <mxPoint x="210" y="502" as="targetPoint" />
            <Array as="points">
              <mxPoint x="48" y="520" />
              <mxPoint x="310" y="520" />
            </Array>
          </mxGeometry>
        </mxCell>
        <mxCell id="UyjxsEcUCUBipYQYCLdP-18" value="&lt;font style=&quot;font-size: 18px;&quot;&gt;&amp;lt; rechercher&lt;/font&gt;" style="text;strokeColor=none;align=center;fillColor=none;html=1;verticalAlign=middle;whiteSpace=wrap;rounded=0;" vertex="1" parent="wY5VRqUfioOa7CEe-IQm-1">
          <mxGeometry x="98" y="490" width="130" height="30" as="geometry" />
        </mxCell>
        <mxCell id="4EeeiCe1b8rLPlCWZ6Gh-0" value="" style="endArrow=none;html=1;rounded=0;entryX=0;entryY=0.5;entryDx=0;entryDy=0;exitX=1;exitY=0.75;exitDx=0;exitDy=0;" edge="1" parent="wY5VRqUfioOa7CEe-IQm-1" source="wY5VRqUfioOa7CEe-IQm-3" target="wY5VRqUfioOa7CEe-IQm-11">
          <mxGeometry width="50" height="50" relative="1" as="geometry">
            <mxPoint x="228" y="342" as="sourcePoint" />
            <mxPoint x="278" y="292" as="targetPoint" />
          </mxGeometry>
        </mxCell>
        <mxCell id="4EeeiCe1b8rLPlCWZ6Gh-1" value="&lt;font style=&quot;font-size: 18px;&quot;&gt;gÃ©rer &amp;gt;&lt;/font&gt;" style="text;strokeColor=none;align=center;fillColor=none;html=1;verticalAlign=middle;whiteSpace=wrap;rounded=0;rotation=-15;" vertex="1" parent="wY5VRqUfioOa7CEe-IQm-1">
          <mxGeometry x="290" y="287" width="60" height="30" as="geometry" />
        </mxCell>
        <mxCell id="4EeeiCe1b8rLPlCWZ6Gh-3" value="1,*" style="text;strokeColor=none;align=center;fillColor=none;html=1;verticalAlign=middle;whiteSpace=wrap;rounded=0;rotation=30;" vertex="1" parent="wY5VRqUfioOa7CEe-IQm-1">
          <mxGeometry x="334" y="170" width="60" height="30" as="geometry" />
        </mxCell>
        <mxCell id="4EeeiCe1b8rLPlCWZ6Gh-4" value="1" style="text;strokeColor=none;align=center;fillColor=none;html=1;verticalAlign=middle;whiteSpace=wrap;rounded=0;rotation=30;" vertex="1" parent="wY5VRqUfioOa7CEe-IQm-1">
          <mxGeometry x="180" y="80" width="60" height="30" as="geometry" />
        </mxCell>
        <mxCell id="4EeeiCe1b8rLPlCWZ6Gh-5" value="1,*" style="text;strokeColor=none;align=center;fillColor=none;html=1;verticalAlign=middle;whiteSpace=wrap;rounded=0;rotation=-45;" vertex="1" parent="wY5VRqUfioOa7CEe-IQm-1">
          <mxGeometry x="606" y="70" width="60" height="30" as="geometry" />
        </mxCell>
        <mxCell id="4EeeiCe1b8rLPlCWZ6Gh-7" value="1" style="text;strokeColor=none;align=center;fillColor=none;html=1;verticalAlign=middle;whiteSpace=wrap;rounded=0;rotation=-45;" vertex="1" parent="wY5VRqUfioOa7CEe-IQm-1">
          <mxGeometry x="478" y="164" width="60" height="30" as="geometry" />
        </mxCell>
        <mxCell id="4EeeiCe1b8rLPlCWZ6Gh-10" value="0,*" style="text;strokeColor=none;align=center;fillColor=none;html=1;verticalAlign=middle;whiteSpace=wrap;rounded=0;" vertex="1" parent="wY5VRqUfioOa7CEe-IQm-1">
          <mxGeometry x="714" y="276" width="60" height="30" as="geometry" />
        </mxCell>
        <mxCell id="4EeeiCe1b8rLPlCWZ6Gh-11" value="1" style="text;strokeColor=none;align=center;fillColor=none;html=1;verticalAlign=middle;whiteSpace=wrap;rounded=0;" vertex="1" parent="wY5VRqUfioOa7CEe-IQm-1">
          <mxGeometry x="501" y="271" width="60" height="30" as="geometry" />
        </mxCell>
        <mxCell id="4EeeiCe1b8rLPlCWZ6Gh-12" value="1" style="text;strokeColor=none;align=center;fillColor=none;html=1;verticalAlign=middle;whiteSpace=wrap;rounded=0;" vertex="1" parent="wY5VRqUfioOa7CEe-IQm-1">
          <mxGeometry x="570" y="390" width="60" height="30" as="geometry" />
        </mxCell>
        <mxCell id="4EeeiCe1b8rLPlCWZ6Gh-13" value="1,*" style="text;strokeColor=none;align=center;fillColor=none;html=1;verticalAlign=middle;whiteSpace=wrap;rounded=0;" vertex="1" parent="wY5VRqUfioOa7CEe-IQm-1">
          <mxGeometry x="408" y="390" width="60" height="30" as="geometry" />
        </mxCell>
        <mxCell id="4EeeiCe1b8rLPlCWZ6Gh-15" value="1" style="text;strokeColor=none;align=center;fillColor=none;html=1;verticalAlign=middle;whiteSpace=wrap;rounded=0;rotation=15;" vertex="1" parent="wY5VRqUfioOa7CEe-IQm-1">
          <mxGeometry x="996" y="494" width="60" height="30" as="geometry" />
        </mxCell>
        <mxCell id="4EeeiCe1b8rLPlCWZ6Gh-19" value="1" style="text;strokeColor=none;align=center;fillColor=none;html=1;verticalAlign=middle;whiteSpace=wrap;rounded=0;" vertex="1" parent="wY5VRqUfioOa7CEe-IQm-1">
          <mxGeometry x="718" y="396" width="60" height="30" as="geometry" />
        </mxCell>
        <mxCell id="4EeeiCe1b8rLPlCWZ6Gh-20" value="1" style="text;strokeColor=none;align=center;fillColor=none;html=1;verticalAlign=middle;whiteSpace=wrap;rounded=0;rotation=-75;" vertex="1" parent="wY5VRqUfioOa7CEe-IQm-1">
          <mxGeometry x="598" y="643" width="60" height="30" as="geometry" />
        </mxCell>
        <mxCell id="4EeeiCe1b8rLPlCWZ6Gh-21" value="1,*" style="text;strokeColor=none;align=center;fillColor=none;html=1;verticalAlign=middle;whiteSpace=wrap;rounded=0;rotation=-75;" vertex="1" parent="wY5VRqUfioOa7CEe-IQm-1">
          <mxGeometry x="614" y="464" width="60" height="30" as="geometry" />
        </mxCell>
        <mxCell id="4EeeiCe1b8rLPlCWZ6Gh-22" value="1,*" style="text;strokeColor=none;align=center;fillColor=none;html=1;verticalAlign=middle;whiteSpace=wrap;rounded=0;rotation=-15;" vertex="1" parent="wY5VRqUfioOa7CEe-IQm-1">
          <mxGeometry x="346" y="279" width="60" height="30" as="geometry" />
        </mxCell>
        <mxCell id="4EeeiCe1b8rLPlCWZ6Gh-23" value="1,*" style="text;strokeColor=none;align=center;fillColor=none;html=1;verticalAlign=middle;whiteSpace=wrap;rounded=0;rotation=-15;" vertex="1" parent="wY5VRqUfioOa7CEe-IQm-1">
          <mxGeometry x="211" y="305" width="60" height="30" as="geometry" />
        </mxCell>
        <mxCell id="4EeeiCe1b8rLPlCWZ6Gh-25" value="1,*" style="text;strokeColor=none;align=center;fillColor=none;html=1;verticalAlign=middle;whiteSpace=wrap;rounded=0;rotation=0;" vertex="1" parent="wY5VRqUfioOa7CEe-IQm-1">
          <mxGeometry x="260" y="490" width="60" height="30" as="geometry" />
        </mxCell>
        <mxCell id="4EeeiCe1b8rLPlCWZ6Gh-26" value="1,*" style="text;strokeColor=none;align=center;fillColor=none;html=1;verticalAlign=middle;whiteSpace=wrap;rounded=0;rotation=-90;" vertex="1" parent="wY5VRqUfioOa7CEe-IQm-1">
          <mxGeometry x="10" y="731" width="60" height="30" as="geometry" />
        </mxCell>
        <mxCell id="4EeeiCe1b8rLPlCWZ6Gh-28" value="1,*" style="text;strokeColor=none;align=center;fillColor=none;html=1;verticalAlign=middle;whiteSpace=wrap;rounded=0;rotation=-75;" vertex="1" parent="wY5VRqUfioOa7CEe-IQm-1">
          <mxGeometry x="243" y="712" width="60" height="30" as="geometry" />
        </mxCell>
        <mxCell id="4EeeiCe1b8rLPlCWZ6Gh-29" value="1" style="text;strokeColor=none;align=center;fillColor=none;html=1;verticalAlign=middle;whiteSpace=wrap;rounded=0;rotation=-75;" vertex="1" parent="wY5VRqUfioOa7CEe-IQm-1">
          <mxGeometry x="317" y="453" width="60" height="30" as="geometry" />
        </mxCell>
        <mxCell id="4EeeiCe1b8rLPlCWZ6Gh-30" value="1,*" style="text;strokeColor=none;align=center;fillColor=none;html=1;verticalAlign=middle;whiteSpace=wrap;rounded=0;rotation=-90;" vertex="1" parent="wY5VRqUfioOa7CEe-IQm-1">
          <mxGeometry x="246" y="825" width="60" height="30" as="geometry" />
        </mxCell>
        <mxCell id="4EeeiCe1b8rLPlCWZ6Gh-31" value="1" style="text;strokeColor=none;align=center;fillColor=none;html=1;verticalAlign=middle;whiteSpace=wrap;rounded=0;rotation=-90;" vertex="1" parent="wY5VRqUfioOa7CEe-IQm-1">
          <mxGeometry x="247" y="979" width="60" height="30" as="geometry" />
        </mxCell>
        <mxCell id="4EeeiCe1b8rLPlCWZ6Gh-32" value="&lt;font style=&quot;font-size: 18px;&quot;&gt;&amp;lt; appartenir&lt;/font&gt;" style="text;strokeColor=none;align=center;fillColor=none;html=1;verticalAlign=middle;whiteSpace=wrap;rounded=0;" vertex="1" parent="wY5VRqUfioOa7CEe-IQm-1">
          <mxGeometry x="571" y="305" width="140" height="30" as="geometry" />
        </mxCell>
        <mxCell id="4EeeiCe1b8rLPlCWZ6Gh-33" value="&lt;span style=&quot;font-size: 18px;&quot;&gt;&amp;lt; recevoir&lt;/span&gt;" style="text;strokeColor=none;align=center;fillColor=none;html=1;verticalAlign=middle;whiteSpace=wrap;rounded=0;rotation=-35;" vertex="1" parent="wY5VRqUfioOa7CEe-IQm-1">
          <mxGeometry x="540" y="134" width="110" height="30" as="geometry" />
        </mxCell>
      </root>
    </mxGraphModel>
  </diagram>
  <diagram name="classe_technique" id="BBLeTyuZePI5Ggk8Qeh0">
    <mxGraphModel dx="1307" dy="559" grid="1" gridSize="10" guides="1" tooltips="1" connect="1" arrows="1" fold="1" page="1" pageScale="1" pageWidth="850" pageHeight="1100" math="0" shadow="0">
      <root>
        <mxCell id="BVFIFrkS2k0CyckL_QwM-0" />
        <mxCell id="BVFIFrkS2k0CyckL_QwM-1" parent="BVFIFrkS2k0CyckL_QwM-0" />
        <mxCell id="BVFIFrkS2k0CyckL_QwM-14" style="rounded=0;orthogonalLoop=1;jettySize=auto;endArrow=block;endFill=0;exitX=0.082;exitY=1.012;exitDx=0;exitDy=0;exitPerimeter=0;" parent="BVFIFrkS2k0CyckL_QwM-1" source="tb1lNJRs8N6_iji7d-Rg-1" edge="1">
          <mxGeometry relative="1" as="geometry">
            <mxPoint x="387.2258064516129" y="240" as="sourcePoint" />
            <mxPoint x="224" y="298.76393668272544" as="targetPoint" />
          </mxGeometry>
        </mxCell>
        <mxCell id="BVFIFrkS2k0CyckL_QwM-15" value="" style="endArrow=block;html=1;rounded=0;entryX=0.25;entryY=1;entryDx=0;entryDy=0;endFill=0;" parent="BVFIFrkS2k0CyckL_QwM-1" edge="1">
          <mxGeometry width="50" height="50" relative="1" as="geometry">
            <mxPoint x="120" y="760" as="sourcePoint" />
            <mxPoint x="136.5" y="679.5" as="targetPoint" />
          </mxGeometry>
        </mxCell>
        <mxCell id="BVFIFrkS2k0CyckL_QwM-16" value="" style="endArrow=block;html=1;rounded=0;entryX=0.317;entryY=1.06;entryDx=0;entryDy=0;entryPerimeter=0;exitX=0.25;exitY=0;exitDx=0;exitDy=0;endFill=0;" parent="BVFIFrkS2k0CyckL_QwM-1" edge="1">
          <mxGeometry width="50" height="50" relative="1" as="geometry">
            <mxPoint x="229.99999999999977" y="760" as="sourcePoint" />
            <mxPoint x="200" y="680" as="targetPoint" />
          </mxGeometry>
        </mxCell>
        <mxCell id="BVFIFrkS2k0CyckL_QwM-17" style="rounded=0;orthogonalLoop=1;jettySize=auto;endArrow=block;endFill=0;exitX=0.603;exitY=1.003;exitDx=0;exitDy=0;exitPerimeter=0;" parent="BVFIFrkS2k0CyckL_QwM-1" source="tb1lNJRs8N6_iji7d-Rg-1" edge="1">
          <mxGeometry relative="1" as="geometry">
            <mxPoint x="470" y="240" as="sourcePoint" />
            <mxPoint x="470" y="270" as="targetPoint" />
          </mxGeometry>
        </mxCell>
        <mxCell id="BVFIFrkS2k0CyckL_QwM-18" value="" style="endArrow=block;html=1;rounded=0;entryX=0.681;entryY=0.912;entryDx=0;entryDy=0;entryPerimeter=0;exitX=0.616;exitY=-0.004;exitDx=0;exitDy=0;endFill=0;exitPerimeter=0;" parent="BVFIFrkS2k0CyckL_QwM-1" source="UmLVYEv9rNojV646plMk-33" edge="1">
          <mxGeometry width="50" height="50" relative="1" as="geometry">
            <mxPoint x="181.97999999999993" y="412.30999999999995" as="sourcePoint" />
            <mxPoint x="180.99999999999991" y="346.99799999999993" as="targetPoint" />
          </mxGeometry>
        </mxCell>
        <mxCell id="BVFIFrkS2k0CyckL_QwM-20" value="" style="endArrow=block;html=1;rounded=0;entryX=1.02;entryY=0.64;entryDx=0;entryDy=0;exitX=0.298;exitY=-0.009;exitDx=0;exitDy=0;endFill=0;entryPerimeter=0;exitPerimeter=0;" parent="BVFIFrkS2k0CyckL_QwM-1" source="UmLVYEv9rNojV646plMk-4" target="tb1lNJRs8N6_iji7d-Rg-13" edge="1">
          <mxGeometry width="50" height="50" relative="1" as="geometry">
            <mxPoint x="644" y="390" as="sourcePoint" />
            <mxPoint x="485" y="332" as="targetPoint" />
          </mxGeometry>
        </mxCell>
        <mxCell id="BVFIFrkS2k0CyckL_QwM-21" value="" style="endArrow=block;html=1;rounded=0;entryX=-0.001;entryY=0.879;entryDx=0;entryDy=0;exitX=0.148;exitY=-0.027;exitDx=0;exitDy=0;endFill=0;entryPerimeter=0;exitPerimeter=0;" parent="BVFIFrkS2k0CyckL_QwM-1" source="UmLVYEv9rNojV646plMk-0" edge="1" target="tb1lNJRs8N6_iji7d-Rg-13">
          <mxGeometry width="50" height="50" relative="1" as="geometry">
            <mxPoint x="334" y="455" as="sourcePoint" />
            <mxPoint x="425" y="332" as="targetPoint" />
          </mxGeometry>
        </mxCell>
        <mxCell id="BVFIFrkS2k0CyckL_QwM-23" value="&amp;lt;&amp;lt;abstract&amp;gt;&amp;gt;" style="text;html=1;align=center;verticalAlign=middle;whiteSpace=wrap;rounded=0;" parent="BVFIFrkS2k0CyckL_QwM-1" vertex="1">
          <mxGeometry x="970" y="354" width="60" height="30" as="geometry" />
        </mxCell>
        <mxCell id="BVFIFrkS2k0CyckL_QwM-24" value="&amp;lt;&amp;lt;abstract&amp;gt;&amp;gt;" style="text;html=1;align=center;verticalAlign=middle;whiteSpace=wrap;rounded=0;" parent="BVFIFrkS2k0CyckL_QwM-1" vertex="1">
          <mxGeometry x="425" width="60" height="30" as="geometry" />
        </mxCell>
        <mxCell id="BVFIFrkS2k0CyckL_QwM-25" value="&amp;lt;&amp;lt;abstract&amp;gt;&amp;gt;" style="text;html=1;align=center;verticalAlign=middle;whiteSpace=wrap;rounded=0;" parent="BVFIFrkS2k0CyckL_QwM-1" vertex="1">
          <mxGeometry x="480" y="242" width="60" height="30" as="geometry" />
        </mxCell>
        <mxCell id="BVFIFrkS2k0CyckL_QwM-26" value="&amp;lt;&amp;lt;abstract&amp;gt;&amp;gt;" style="text;html=1;align=center;verticalAlign=middle;whiteSpace=wrap;rounded=0;" parent="BVFIFrkS2k0CyckL_QwM-1" vertex="1">
          <mxGeometry x="147" y="565" width="60" height="30" as="geometry" />
        </mxCell>
        <mxCell id="BVFIFrkS2k0CyckL_QwM-27" value="&amp;lt;&amp;lt;abstract&amp;gt;&amp;gt;" style="text;html=1;align=center;verticalAlign=middle;whiteSpace=wrap;rounded=0;" parent="BVFIFrkS2k0CyckL_QwM-1" vertex="1">
          <mxGeometry x="100" y="10" width="60" height="30" as="geometry" />
        </mxCell>
        <mxCell id="BVFIFrkS2k0CyckL_QwM-28" value="&amp;lt;&amp;lt;abstract&amp;gt;&amp;gt;" style="text;html=1;align=center;verticalAlign=middle;whiteSpace=wrap;rounded=0;" parent="BVFIFrkS2k0CyckL_QwM-1" vertex="1">
          <mxGeometry x="675" y="719" width="60" height="30" as="geometry" />
        </mxCell>
        <mxCell id="BVFIFrkS2k0CyckL_QwM-29" value="&amp;lt;&amp;lt;abstract&amp;gt;&amp;gt;" style="text;html=1;align=center;verticalAlign=middle;whiteSpace=wrap;rounded=0;" parent="BVFIFrkS2k0CyckL_QwM-1" vertex="1">
          <mxGeometry x="695" y="17" width="60" height="30" as="geometry" />
        </mxCell>
        <mxCell id="BVFIFrkS2k0CyckL_QwM-32" value="" style="group;rotation=90;" parent="BVFIFrkS2k0CyckL_QwM-1" vertex="1" connectable="0">
          <mxGeometry x="816" y="354" width="84" height="120" as="geometry" />
        </mxCell>
        <mxCell id="BVFIFrkS2k0CyckL_QwM-33" value="&lt;font style=&quot;font-size: 18px;&quot;&gt;faire &amp;gt;&lt;/font&gt;" style="text;strokeColor=none;align=center;fillColor=none;html=1;verticalAlign=middle;whiteSpace=wrap;rounded=0;rotation=-15;" parent="BVFIFrkS2k0CyckL_QwM-32" vertex="1">
          <mxGeometry x="-23" y="75" width="74" height="12" as="geometry" />
        </mxCell>
        <mxCell id="BVFIFrkS2k0CyckL_QwM-35" value="1,*" style="text;strokeColor=none;align=center;fillColor=none;html=1;verticalAlign=middle;whiteSpace=wrap;rounded=0;" parent="BVFIFrkS2k0CyckL_QwM-32" vertex="1">
          <mxGeometry x="51" y="45" width="60" height="30" as="geometry" />
        </mxCell>
        <mxCell id="BVFIFrkS2k0CyckL_QwM-36" value="&lt;font style=&quot;font-size: 18px;&quot;&gt;possÃ©der &amp;gt;&lt;/font&gt;" style="text;strokeColor=none;align=center;fillColor=none;html=1;verticalAlign=middle;whiteSpace=wrap;rounded=0;rotation=15;" parent="BVFIFrkS2k0CyckL_QwM-1" vertex="1">
          <mxGeometry x="816" y="535" width="140" height="30" as="geometry" />
        </mxCell>
        <mxCell id="BVFIFrkS2k0CyckL_QwM-37" value="" style="endArrow=none;html=1;rounded=0;entryX=0;entryY=0.25;entryDx=0;entryDy=0;exitX=1;exitY=0.666;exitDx=0;exitDy=0;exitPerimeter=0;" parent="BVFIFrkS2k0CyckL_QwM-1" source="tb1lNJRs8N6_iji7d-Rg-1" edge="1">
          <mxGeometry width="50" height="50" relative="1" as="geometry">
            <mxPoint x="498" y="199" as="sourcePoint" />
            <mxPoint x="654" y="83.99999999999994" as="targetPoint" />
          </mxGeometry>
        </mxCell>
        <mxCell id="BVFIFrkS2k0CyckL_QwM-38" value="" style="endArrow=none;html=1;rounded=0;entryX=0;entryY=0.75;entryDx=0;entryDy=0;exitX=1.014;exitY=0.127;exitDx=0;exitDy=0;exitPerimeter=0;" parent="BVFIFrkS2k0CyckL_QwM-1" source="UmLVYEv9rNojV646plMk-5" edge="1">
          <mxGeometry width="50" height="50" relative="1" as="geometry">
            <mxPoint x="734" y="420" as="sourcePoint" />
            <mxPoint x="910" y="425" as="targetPoint" />
          </mxGeometry>
        </mxCell>
        <mxCell id="BVFIFrkS2k0CyckL_QwM-39" value="&lt;span style=&quot;font-size: 18px;&quot;&gt;envoyer &amp;gt;&lt;/span&gt;" style="text;strokeColor=none;align=center;fillColor=none;html=1;verticalAlign=middle;whiteSpace=wrap;rounded=0;rotation=-35;" parent="BVFIFrkS2k0CyckL_QwM-1" vertex="1">
          <mxGeometry x="520" y="100" width="110" height="30" as="geometry" />
        </mxCell>
        <mxCell id="BVFIFrkS2k0CyckL_QwM-40" value="" style="endArrow=none;html=1;rounded=0;exitX=0.998;exitY=0.05;exitDx=0;exitDy=0;exitPerimeter=0;" parent="BVFIFrkS2k0CyckL_QwM-1" source="tb1lNJRs8N6_iji7d-Rg-13" edge="1">
          <mxGeometry width="50" height="50" relative="1" as="geometry">
            <mxPoint x="561" y="301" as="sourcePoint" />
            <mxPoint x="816" y="305" as="targetPoint" />
          </mxGeometry>
        </mxCell>
        <mxCell id="BVFIFrkS2k0CyckL_QwM-41" value="&lt;span style=&quot;font-size: 18px;&quot;&gt;donner &amp;gt;&lt;/span&gt;" style="text;strokeColor=none;align=center;fillColor=none;html=1;verticalAlign=middle;whiteSpace=wrap;rounded=0;rotation=0;" parent="BVFIFrkS2k0CyckL_QwM-1" vertex="1">
          <mxGeometry x="611" y="280" width="74" height="12" as="geometry" />
        </mxCell>
        <mxCell id="BVFIFrkS2k0CyckL_QwM-42" value="&lt;span style=&quot;font-size: 18px;&quot;&gt;vÃ©rifier identitÃ© &amp;gt;&lt;/span&gt;" style="text;strokeColor=none;align=center;fillColor=none;html=1;verticalAlign=middle;whiteSpace=wrap;rounded=0;rotation=30;" parent="BVFIFrkS2k0CyckL_QwM-1" vertex="1">
          <mxGeometry x="224" y="127" width="140" height="30" as="geometry" />
        </mxCell>
        <mxCell id="BVFIFrkS2k0CyckL_QwM-43" value="" style="endArrow=none;html=1;rounded=0;exitX=1.069;exitY=1.021;exitDx=0;exitDy=0;entryX=1;entryY=1;entryDx=0;entryDy=0;exitPerimeter=0;" parent="BVFIFrkS2k0CyckL_QwM-1" source="BVFIFrkS2k0CyckL_QwM-57" edge="1">
          <mxGeometry width="50" height="50" relative="1" as="geometry">
            <mxPoint x="378" y="210" as="sourcePoint" />
            <mxPoint x="192" y="100" as="targetPoint" />
          </mxGeometry>
        </mxCell>
        <mxCell id="BVFIFrkS2k0CyckL_QwM-44" value="" style="endArrow=none;html=1;rounded=0;exitX=0.833;exitY=0.017;exitDx=0;exitDy=0;exitPerimeter=0;entryX=0.454;entryY=1.054;entryDx=0;entryDy=0;entryPerimeter=0;" parent="BVFIFrkS2k0CyckL_QwM-1" target="UmLVYEv9rNojV646plMk-5" edge="1">
          <mxGeometry width="50" height="50" relative="1" as="geometry">
            <mxPoint x="639.96" y="748.0200000000002" as="sourcePoint" />
            <mxPoint x="650" y="540" as="targetPoint" />
          </mxGeometry>
        </mxCell>
        <mxCell id="BVFIFrkS2k0CyckL_QwM-45" value="&lt;font style=&quot;font-size: 18px;&quot;&gt;vÃ©rifier piÃ¨ces &amp;gt;&lt;/font&gt;" style="text;strokeColor=none;align=center;fillColor=none;html=1;verticalAlign=middle;whiteSpace=wrap;rounded=0;rotation=-85;" parent="BVFIFrkS2k0CyckL_QwM-1" vertex="1">
          <mxGeometry x="561" y="610" width="150" height="30" as="geometry" />
        </mxCell>
        <mxCell id="BVFIFrkS2k0CyckL_QwM-46" value="" style="endArrow=none;html=1;rounded=0;entryX=1.037;entryY=0.858;entryDx=0;entryDy=0;entryPerimeter=0;exitX=0;exitY=0.5;exitDx=0;exitDy=0;" parent="BVFIFrkS2k0CyckL_QwM-1" edge="1" source="UmLVYEv9rNojV646plMk-14">
          <mxGeometry width="50" height="50" relative="1" as="geometry">
            <mxPoint x="1044" y="527" as="sourcePoint" />
            <mxPoint x="755.29" y="514.912" as="targetPoint" />
          </mxGeometry>
        </mxCell>
        <mxCell id="BVFIFrkS2k0CyckL_QwM-47" value="" style="endArrow=none;html=1;rounded=0;entryX=0.75;entryY=1;entryDx=0;entryDy=0;" parent="BVFIFrkS2k0CyckL_QwM-1" edge="1">
          <mxGeometry width="50" height="50" relative="1" as="geometry">
            <mxPoint x="290" y="1154" as="sourcePoint" />
            <mxPoint x="290" y="963" as="targetPoint" />
          </mxGeometry>
        </mxCell>
        <mxCell id="BVFIFrkS2k0CyckL_QwM-48" value="&lt;font style=&quot;font-size: 18px;&quot;&gt;calculer coÃ»t &amp;gt;&lt;/font&gt;" style="text;strokeColor=none;align=center;fillColor=none;html=1;verticalAlign=middle;whiteSpace=wrap;rounded=0;rotation=-90;" parent="BVFIFrkS2k0CyckL_QwM-1" vertex="1">
          <mxGeometry x="180" y="1044" width="170" height="30" as="geometry" />
        </mxCell>
        <mxCell id="BVFIFrkS2k0CyckL_QwM-49" value="" style="endArrow=none;html=1;rounded=0;entryX=0.652;entryY=1.096;entryDx=0;entryDy=0;exitX=0.917;exitY=-0.003;exitDx=0;exitDy=0;exitPerimeter=0;entryPerimeter=0;" parent="BVFIFrkS2k0CyckL_QwM-1" target="UmLVYEv9rNojV646plMk-1" edge="1">
          <mxGeometry width="50" height="50" relative="1" as="geometry">
            <mxPoint x="280" y="758.9999999999999" as="sourcePoint" />
            <mxPoint x="364" y="515" as="targetPoint" />
          </mxGeometry>
        </mxCell>
        <mxCell id="BVFIFrkS2k0CyckL_QwM-50" value="&lt;span style=&quot;font-size: 18px;&quot;&gt;&amp;lt; gÃ©rer&lt;/span&gt;" style="text;strokeColor=none;align=center;fillColor=none;html=1;verticalAlign=middle;whiteSpace=wrap;rounded=0;rotation=-75;" parent="BVFIFrkS2k0CyckL_QwM-1" vertex="1">
          <mxGeometry x="240" y="619" width="150" height="30" as="geometry" />
        </mxCell>
        <mxCell id="BVFIFrkS2k0CyckL_QwM-51" value="" style="endArrow=none;html=1;rounded=0;entryX=-0.014;entryY=0.445;entryDx=0;entryDy=0;exitX=1.007;exitY=0.223;exitDx=0;exitDy=0;exitPerimeter=0;entryPerimeter=0;" parent="BVFIFrkS2k0CyckL_QwM-1" target="UmLVYEv9rNojV646plMk-5" edge="1" source="UmLVYEv9rNojV646plMk-1">
          <mxGeometry width="50" height="50" relative="1" as="geometry">
            <mxPoint x="424" y="500" as="sourcePoint" />
            <mxPoint x="614" y="420" as="targetPoint" />
          </mxGeometry>
        </mxCell>
        <mxCell id="BVFIFrkS2k0CyckL_QwM-52" value="&lt;span style=&quot;font-size: 18px;&quot;&gt;&amp;lt; transporter&lt;/span&gt;" style="text;strokeColor=none;align=center;fillColor=none;html=1;verticalAlign=middle;whiteSpace=wrap;rounded=0;rotation=0;" parent="BVFIFrkS2k0CyckL_QwM-1" vertex="1">
          <mxGeometry x="449" y="468" width="124" height="12" as="geometry" />
        </mxCell>
        <mxCell id="BVFIFrkS2k0CyckL_QwM-53" value="" style="endArrow=none;html=1;rounded=0;exitX=0.174;exitY=-0.026;exitDx=0;exitDy=0;exitPerimeter=0;entryX=0.009;entryY=0.835;entryDx=0;entryDy=0;entryPerimeter=0;" parent="BVFIFrkS2k0CyckL_QwM-1" target="UmLVYEv9rNojV646plMk-1" edge="1">
          <mxGeometry width="50" height="50" relative="1" as="geometry">
            <mxPoint x="47.87999999999988" y="757.44" as="sourcePoint" />
            <mxPoint x="280" y="520" as="targetPoint" />
            <Array as="points">
              <mxPoint x="48" y="520" />
            </Array>
          </mxGeometry>
        </mxCell>
        <mxCell id="BVFIFrkS2k0CyckL_QwM-54" value="&lt;font style=&quot;font-size: 18px;&quot;&gt;&amp;lt; rechercher&lt;/font&gt;" style="text;strokeColor=none;align=center;fillColor=none;html=1;verticalAlign=middle;whiteSpace=wrap;rounded=0;" parent="BVFIFrkS2k0CyckL_QwM-1" vertex="1">
          <mxGeometry x="62" y="490" width="130" height="30" as="geometry" />
        </mxCell>
        <mxCell id="BVFIFrkS2k0CyckL_QwM-55" value="" style="endArrow=none;html=1;rounded=0;entryX=0;entryY=0.5;entryDx=0;entryDy=0;exitX=1;exitY=0.75;exitDx=0;exitDy=0;" parent="BVFIFrkS2k0CyckL_QwM-1" edge="1">
          <mxGeometry width="50" height="50" relative="1" as="geometry">
            <mxPoint x="224" y="337" as="sourcePoint" />
            <mxPoint x="395" y="302" as="targetPoint" />
          </mxGeometry>
        </mxCell>
        <mxCell id="BVFIFrkS2k0CyckL_QwM-56" value="&lt;font style=&quot;font-size: 18px;&quot;&gt;gÃ©rer &amp;gt;&lt;/font&gt;" style="text;strokeColor=none;align=center;fillColor=none;html=1;verticalAlign=middle;whiteSpace=wrap;rounded=0;rotation=-15;" parent="BVFIFrkS2k0CyckL_QwM-1" vertex="1">
          <mxGeometry x="290" y="287" width="60" height="30" as="geometry" />
        </mxCell>
        <mxCell id="BVFIFrkS2k0CyckL_QwM-57" value="1,*" style="text;strokeColor=none;align=center;fillColor=none;html=1;verticalAlign=middle;whiteSpace=wrap;rounded=0;rotation=30;" parent="BVFIFrkS2k0CyckL_QwM-1" vertex="1">
          <mxGeometry x="334" y="170" width="60" height="30" as="geometry" />
        </mxCell>
        <mxCell id="BVFIFrkS2k0CyckL_QwM-58" value="1" style="text;strokeColor=none;align=center;fillColor=none;html=1;verticalAlign=middle;whiteSpace=wrap;rounded=0;rotation=30;" parent="BVFIFrkS2k0CyckL_QwM-1" vertex="1">
          <mxGeometry x="180" y="80" width="60" height="30" as="geometry" />
        </mxCell>
        <mxCell id="BVFIFrkS2k0CyckL_QwM-59" value="1,*" style="text;strokeColor=none;align=center;fillColor=none;html=1;verticalAlign=middle;whiteSpace=wrap;rounded=0;rotation=-45;" parent="BVFIFrkS2k0CyckL_QwM-1" vertex="1">
          <mxGeometry x="606" y="70" width="60" height="30" as="geometry" />
        </mxCell>
        <mxCell id="BVFIFrkS2k0CyckL_QwM-60" value="1" style="text;strokeColor=none;align=center;fillColor=none;html=1;verticalAlign=middle;whiteSpace=wrap;rounded=0;rotation=-45;" parent="BVFIFrkS2k0CyckL_QwM-1" vertex="1">
          <mxGeometry x="503" y="145" width="60" height="30" as="geometry" />
        </mxCell>
        <mxCell id="BVFIFrkS2k0CyckL_QwM-61" value="0,*" style="text;strokeColor=none;align=center;fillColor=none;html=1;verticalAlign=middle;whiteSpace=wrap;rounded=0;" parent="BVFIFrkS2k0CyckL_QwM-1" vertex="1">
          <mxGeometry x="768" y="276" width="60" height="30" as="geometry" />
        </mxCell>
        <mxCell id="BVFIFrkS2k0CyckL_QwM-62" value="1" style="text;strokeColor=none;align=center;fillColor=none;html=1;verticalAlign=middle;whiteSpace=wrap;rounded=0;" parent="BVFIFrkS2k0CyckL_QwM-1" vertex="1">
          <mxGeometry x="540" y="275" width="60" height="30" as="geometry" />
        </mxCell>
        <mxCell id="BVFIFrkS2k0CyckL_QwM-63" value="1" style="text;strokeColor=none;align=center;fillColor=none;html=1;verticalAlign=middle;whiteSpace=wrap;rounded=0;" parent="BVFIFrkS2k0CyckL_QwM-1" vertex="1">
          <mxGeometry x="547" y="459" width="60" height="30" as="geometry" />
        </mxCell>
        <mxCell id="BVFIFrkS2k0CyckL_QwM-64" value="1,*" style="text;strokeColor=none;align=center;fillColor=none;html=1;verticalAlign=middle;whiteSpace=wrap;rounded=0;" parent="BVFIFrkS2k0CyckL_QwM-1" vertex="1">
          <mxGeometry x="413" y="458" width="60" height="30" as="geometry" />
        </mxCell>
        <mxCell id="BVFIFrkS2k0CyckL_QwM-65" value="1" style="text;strokeColor=none;align=center;fillColor=none;html=1;verticalAlign=middle;whiteSpace=wrap;rounded=0;rotation=0;" parent="BVFIFrkS2k0CyckL_QwM-1" vertex="1">
          <mxGeometry x="996" y="589" width="60" height="30" as="geometry" />
        </mxCell>
        <mxCell id="BVFIFrkS2k0CyckL_QwM-66" value="1" style="text;strokeColor=none;align=center;fillColor=none;html=1;verticalAlign=middle;whiteSpace=wrap;rounded=0;" parent="BVFIFrkS2k0CyckL_QwM-1" vertex="1">
          <mxGeometry x="735" y="438" width="60" height="30" as="geometry" />
        </mxCell>
        <mxCell id="BVFIFrkS2k0CyckL_QwM-67" value="1" style="text;strokeColor=none;align=center;fillColor=none;html=1;verticalAlign=middle;whiteSpace=wrap;rounded=0;rotation=-75;" parent="BVFIFrkS2k0CyckL_QwM-1" vertex="1">
          <mxGeometry x="598" y="721" width="60" height="30" as="geometry" />
        </mxCell>
        <mxCell id="BVFIFrkS2k0CyckL_QwM-68" value="1,*" style="text;strokeColor=none;align=center;fillColor=none;html=1;verticalAlign=middle;whiteSpace=wrap;rounded=0;rotation=-75;" parent="BVFIFrkS2k0CyckL_QwM-1" vertex="1">
          <mxGeometry x="618" y="524" width="60" height="30" as="geometry" />
        </mxCell>
        <mxCell id="BVFIFrkS2k0CyckL_QwM-69" value="1,*" style="text;strokeColor=none;align=center;fillColor=none;html=1;verticalAlign=middle;whiteSpace=wrap;rounded=0;rotation=-15;" parent="BVFIFrkS2k0CyckL_QwM-1" vertex="1">
          <mxGeometry x="346" y="279" width="60" height="30" as="geometry" />
        </mxCell>
        <mxCell id="BVFIFrkS2k0CyckL_QwM-70" value="1,*" style="text;strokeColor=none;align=center;fillColor=none;html=1;verticalAlign=middle;whiteSpace=wrap;rounded=0;rotation=-15;" parent="BVFIFrkS2k0CyckL_QwM-1" vertex="1">
          <mxGeometry x="211" y="305" width="60" height="30" as="geometry" />
        </mxCell>
        <mxCell id="BVFIFrkS2k0CyckL_QwM-71" value="1,*" style="text;strokeColor=none;align=center;fillColor=none;html=1;verticalAlign=middle;whiteSpace=wrap;rounded=0;rotation=0;" parent="BVFIFrkS2k0CyckL_QwM-1" vertex="1">
          <mxGeometry x="181" y="494" width="60" height="30" as="geometry" />
        </mxCell>
        <mxCell id="BVFIFrkS2k0CyckL_QwM-72" value="1,*" style="text;strokeColor=none;align=center;fillColor=none;html=1;verticalAlign=middle;whiteSpace=wrap;rounded=0;rotation=-90;" parent="BVFIFrkS2k0CyckL_QwM-1" vertex="1">
          <mxGeometry x="10" y="731" width="60" height="30" as="geometry" />
        </mxCell>
        <mxCell id="BVFIFrkS2k0CyckL_QwM-73" value="1,*" style="text;strokeColor=none;align=center;fillColor=none;html=1;verticalAlign=middle;whiteSpace=wrap;rounded=0;rotation=-75;" parent="BVFIFrkS2k0CyckL_QwM-1" vertex="1">
          <mxGeometry x="247" y="712" width="60" height="30" as="geometry" />
        </mxCell>
        <mxCell id="BVFIFrkS2k0CyckL_QwM-74" value="1" style="text;strokeColor=none;align=center;fillColor=none;html=1;verticalAlign=middle;whiteSpace=wrap;rounded=0;rotation=-60;" parent="BVFIFrkS2k0CyckL_QwM-1" vertex="1">
          <mxGeometry x="325" y="524" width="60" height="30" as="geometry" />
        </mxCell>
        <mxCell id="BVFIFrkS2k0CyckL_QwM-75" value="1,*" style="text;strokeColor=none;align=center;fillColor=none;html=1;verticalAlign=middle;whiteSpace=wrap;rounded=0;rotation=-90;" parent="BVFIFrkS2k0CyckL_QwM-1" vertex="1">
          <mxGeometry x="246" y="969" width="60" height="30" as="geometry" />
        </mxCell>
        <mxCell id="BVFIFrkS2k0CyckL_QwM-76" value="1" style="text;strokeColor=none;align=center;fillColor=none;html=1;verticalAlign=middle;whiteSpace=wrap;rounded=0;rotation=-90;" parent="BVFIFrkS2k0CyckL_QwM-1" vertex="1">
          <mxGeometry x="247" y="1123" width="60" height="30" as="geometry" />
        </mxCell>
        <mxCell id="BVFIFrkS2k0CyckL_QwM-77" value="&lt;font style=&quot;font-size: 18px;&quot;&gt;&amp;lt; appartenir&lt;/font&gt;" style="text;strokeColor=none;align=center;fillColor=none;html=1;verticalAlign=middle;whiteSpace=wrap;rounded=0;" parent="BVFIFrkS2k0CyckL_QwM-1" vertex="1">
          <mxGeometry x="571" y="311" width="140" height="30" as="geometry" />
        </mxCell>
        <mxCell id="BVFIFrkS2k0CyckL_QwM-78" value="&lt;span style=&quot;font-size: 18px;&quot;&gt;&amp;lt; recevoir&lt;/span&gt;" style="text;strokeColor=none;align=center;fillColor=none;html=1;verticalAlign=middle;whiteSpace=wrap;rounded=0;rotation=-35;" parent="BVFIFrkS2k0CyckL_QwM-1" vertex="1">
          <mxGeometry x="545" y="135" width="110" height="30" as="geometry" />
        </mxCell>
        <mxCell id="tb1lNJRs8N6_iji7d-Rg-0" value="User" style="swimlane;fontStyle=0;childLayout=stackLayout;horizontal=1;startSize=26;fillColor=none;horizontalStack=0;resizeParent=1;resizeParentMax=0;resizeLast=0;collapsible=1;marginBottom=0;whiteSpace=wrap;html=1;" parent="BVFIFrkS2k0CyckL_QwM-1" vertex="1">
          <mxGeometry x="385" y="40" width="140" height="190" as="geometry" />
        </mxCell>
        <mxCell id="tb1lNJRs8N6_iji7d-Rg-1" value="&lt;li&gt;&lt;code&gt;id: int&lt;/code&gt;&lt;/li&gt;&lt;li&gt;&lt;code&gt;username: String&lt;/code&gt;&lt;/li&gt;&lt;li&gt;&lt;code&gt;password: String&lt;/code&gt;&lt;/li&gt;&lt;li&gt;&lt;code&gt;email: String&lt;/code&gt;&lt;/li&gt;&lt;li&gt;&lt;code&gt;phoneNumber: String&lt;/code&gt;&lt;/li&gt;&lt;li&gt;&lt;code&gt;createdAt: DateTime&lt;/code&gt;&lt;/li&gt;&lt;li&gt;&lt;code&gt;updatedAt: DateTime&lt;/code&gt;&lt;/li&gt;" style="text;strokeColor=none;fillColor=none;align=left;verticalAlign=top;spacingLeft=4;spacingRight=4;overflow=hidden;rotatable=0;points=[[0,0.5],[1,0.5]];portConstraint=eastwest;whiteSpace=wrap;html=1;" parent="tb1lNJRs8N6_iji7d-Rg-0" vertex="1">
          <mxGeometry y="26" width="140" height="164" as="geometry" />
        </mxCell>
        <mxCell id="tb1lNJRs8N6_iji7d-Rg-4" value="Message" style="swimlane;fontStyle=0;childLayout=stackLayout;horizontal=1;startSize=26;fillColor=none;horizontalStack=0;resizeParent=1;resizeParentMax=0;resizeLast=0;collapsible=1;marginBottom=0;whiteSpace=wrap;html=1;" parent="BVFIFrkS2k0CyckL_QwM-1" vertex="1">
          <mxGeometry x="655" y="47" width="140" height="160" as="geometry" />
        </mxCell>
        <mxCell id="tb1lNJRs8N6_iji7d-Rg-5" value="&lt;li&gt;&lt;code&gt;id: int&lt;/code&gt;&lt;/li&gt;&lt;li&gt;&lt;code&gt;senderId: int&lt;/code&gt;&lt;/li&gt;&lt;li&gt;&lt;code&gt;receiverId: int&lt;/code&gt;&lt;/li&gt;&lt;li&gt;&lt;code&gt;content: String&lt;/code&gt;&lt;/li&gt;&lt;li&gt;&lt;code&gt;sentAt: DateTime&lt;/code&gt;&lt;/li&gt;&lt;li&gt;&lt;code&gt;readAt: DateTime&lt;/code&gt;&lt;/li&gt;" style="text;strokeColor=none;fillColor=none;align=left;verticalAlign=top;spacingLeft=4;spacingRight=4;overflow=hidden;rotatable=0;points=[[0,0.5],[1,0.5]];portConstraint=eastwest;whiteSpace=wrap;html=1;" parent="tb1lNJRs8N6_iji7d-Rg-4" vertex="1">
          <mxGeometry y="26" width="140" height="134" as="geometry" />
        </mxCell>
        <mxCell id="tb1lNJRs8N6_iji7d-Rg-8" value="Authenticator" style="swimlane;fontStyle=0;childLayout=stackLayout;horizontal=1;startSize=26;fillColor=none;horizontalStack=0;resizeParent=1;resizeParentMax=0;resizeLast=0;collapsible=1;marginBottom=0;whiteSpace=wrap;html=1;" parent="BVFIFrkS2k0CyckL_QwM-1" vertex="1">
          <mxGeometry x="51" y="35" width="140" height="140" as="geometry" />
        </mxCell>
        <mxCell id="tb1lNJRs8N6_iji7d-Rg-9" value="&lt;li&gt;&lt;code&gt;authMethod: String&lt;/code&gt;&lt;/li&gt;&lt;li&gt;&lt;code&gt;token: String&lt;/code&gt;&lt;/li&gt;&lt;li&gt;&lt;code&gt;expiresAt: DateTime&lt;/code&gt;&lt;/li&gt;" style="text;strokeColor=none;fillColor=none;align=left;verticalAlign=top;spacingLeft=4;spacingRight=4;overflow=hidden;rotatable=0;points=[[0,0.5],[1,0.5]];portConstraint=eastwest;whiteSpace=wrap;html=1;" parent="tb1lNJRs8N6_iji7d-Rg-8" vertex="1">
          <mxGeometry y="26" width="140" height="114" as="geometry" />
        </mxCell>
        <mxCell id="tb1lNJRs8N6_iji7d-Rg-12" value="BusinessUser" style="swimlane;fontStyle=0;childLayout=stackLayout;horizontal=1;startSize=26;fillColor=none;horizontalStack=0;resizeParent=1;resizeParentMax=0;resizeLast=0;collapsible=1;marginBottom=0;whiteSpace=wrap;html=1;" parent="BVFIFrkS2k0CyckL_QwM-1" vertex="1">
          <mxGeometry x="395" y="271" width="150" height="120" as="geometry" />
        </mxCell>
        <mxCell id="tb1lNJRs8N6_iji7d-Rg-13" value="&lt;li&gt;&lt;code&gt;status: String&lt;/code&gt;&amp;nbsp;&lt;/li&gt;&lt;li&gt;&lt;code style=&quot;background-color: initial;&quot;&gt;subscriptionStatus: String&lt;/code&gt;&lt;span style=&quot;background-color: initial;&quot;&gt;&amp;nbsp;&lt;/span&gt;&lt;/li&gt;" style="text;strokeColor=none;fillColor=none;align=left;verticalAlign=top;spacingLeft=4;spacingRight=4;overflow=hidden;rotatable=0;points=[[0,0.5],[1,0.5]];portConstraint=eastwest;whiteSpace=wrap;html=1;" parent="tb1lNJRs8N6_iji7d-Rg-12" vertex="1">
          <mxGeometry y="26" width="150" height="94" as="geometry" />
        </mxCell>
        <mxCell id="tb1lNJRs8N6_iji7d-Rg-16" value="Note" style="swimlane;fontStyle=0;childLayout=stackLayout;horizontal=1;startSize=26;fillColor=none;horizontalStack=0;resizeParent=1;resizeParentMax=0;resizeLast=0;collapsible=1;marginBottom=0;whiteSpace=wrap;html=1;" parent="BVFIFrkS2k0CyckL_QwM-1" vertex="1">
          <mxGeometry x="816" y="207" width="140" height="140" as="geometry" />
        </mxCell>
        <mxCell id="tb1lNJRs8N6_iji7d-Rg-17" value="&lt;li&gt;&lt;code&gt;id: int&lt;/code&gt;&lt;/li&gt;&lt;li&gt;&lt;code&gt;authorId: int&lt;/code&gt;&amp;nbsp;&lt;/li&gt;&lt;li&gt;&lt;code&gt;driverId: int&lt;/code&gt;&amp;nbsp;&lt;/li&gt;&lt;li&gt;&lt;code&gt;rating: float&lt;/code&gt;&lt;/li&gt;&lt;li&gt;&lt;code&gt;comment: String&lt;/code&gt;&lt;/li&gt;&lt;li&gt;&lt;code&gt;createdAt: DateTime&lt;/code&gt;&lt;/li&gt;" style="text;strokeColor=none;fillColor=none;align=left;verticalAlign=top;spacingLeft=4;spacingRight=4;overflow=hidden;rotatable=0;points=[[0,0.5],[1,0.5]];portConstraint=eastwest;whiteSpace=wrap;html=1;" parent="tb1lNJRs8N6_iji7d-Rg-16" vertex="1">
          <mxGeometry y="26" width="140" height="114" as="geometry" />
        </mxCell>
        <mxCell id="UmLVYEv9rNojV646plMk-0" value="Traveller" style="swimlane;fontStyle=0;childLayout=stackLayout;horizontal=1;startSize=26;fillColor=none;horizontalStack=0;resizeParent=1;resizeParentMax=0;resizeLast=0;collapsible=1;marginBottom=0;whiteSpace=wrap;html=1;" vertex="1" parent="BVFIFrkS2k0CyckL_QwM-1">
          <mxGeometry x="255" y="450" width="180" height="80" as="geometry" />
        </mxCell>
        <mxCell id="UmLVYEv9rNojV646plMk-1" value="&lt;li&gt;&lt;code&gt;preferredPaymentMethod: String&lt;/code&gt;&lt;/li&gt;&lt;li&gt;&lt;code&gt;rideHistory: List&amp;lt;Ride&amp;gt;&lt;/code&gt;&lt;/li&gt;" style="text;strokeColor=none;fillColor=none;align=left;verticalAlign=top;spacingLeft=4;spacingRight=4;overflow=hidden;rotatable=0;points=[[0,0.5],[1,0.5]];portConstraint=eastwest;whiteSpace=wrap;html=1;" vertex="1" parent="UmLVYEv9rNojV646plMk-0">
          <mxGeometry y="26" width="180" height="54" as="geometry" />
        </mxCell>
        <mxCell id="UmLVYEv9rNojV646plMk-4" value="Driver" style="swimlane;fontStyle=0;childLayout=stackLayout;horizontal=1;startSize=26;fillColor=none;horizontalStack=0;resizeParent=1;resizeParentMax=0;resizeLast=0;collapsible=1;marginBottom=0;whiteSpace=wrap;html=1;" vertex="1" parent="BVFIFrkS2k0CyckL_QwM-1">
          <mxGeometry x="585" y="434" width="170" height="90" as="geometry" />
        </mxCell>
        <mxCell id="UmLVYEv9rNojV646plMk-5" value="&lt;li&gt;&lt;code&gt;licenseNumber: String&lt;/code&gt;&lt;/li&gt;&lt;li&gt;&lt;code&gt;vehicleId: int&lt;/code&gt;&amp;nbsp;&lt;/li&gt;&lt;li&gt;&lt;code&gt;experience: int&lt;/code&gt;&amp;nbsp;&lt;/li&gt;&lt;li&gt;&lt;code&gt;rating: float&lt;/code&gt;&lt;/li&gt;" style="text;strokeColor=none;fillColor=none;align=left;verticalAlign=top;spacingLeft=4;spacingRight=4;overflow=hidden;rotatable=0;points=[[0,0.5],[1,0.5]];portConstraint=eastwest;whiteSpace=wrap;html=1;" vertex="1" parent="UmLVYEv9rNojV646plMk-4">
          <mxGeometry y="26" width="170" height="64" as="geometry" />
        </mxCell>
        <mxCell id="UmLVYEv9rNojV646plMk-13" value="Vehicle" style="swimlane;fontStyle=0;childLayout=stackLayout;horizontal=1;startSize=26;fillColor=none;horizontalStack=0;resizeParent=1;resizeParentMax=0;resizeLast=0;collapsible=1;marginBottom=0;whiteSpace=wrap;html=1;" vertex="1" parent="BVFIFrkS2k0CyckL_QwM-1">
          <mxGeometry x="1044" y="544" width="140" height="130" as="geometry" />
        </mxCell>
        <mxCell id="UmLVYEv9rNojV646plMk-14" value="&lt;li&gt;&lt;code&gt;id: int&lt;/code&gt;&lt;/li&gt;&lt;li&gt;&lt;code&gt;model: String&lt;/code&gt;&lt;/li&gt;&lt;li&gt;&lt;code&gt;licensePlate: String&lt;/code&gt;&lt;/li&gt;&lt;li&gt;&lt;code&gt;capacity: int&lt;/code&gt;&lt;/li&gt;&lt;li&gt;&lt;code&gt;ownerId: int&lt;/code&gt;&amp;nbsp;&lt;/li&gt;" style="text;strokeColor=none;fillColor=none;align=left;verticalAlign=top;spacingLeft=4;spacingRight=4;overflow=hidden;rotatable=0;points=[[0,0.5],[1,0.5]];portConstraint=eastwest;whiteSpace=wrap;html=1;" vertex="1" parent="UmLVYEv9rNojV646plMk-13">
          <mxGeometry y="26" width="140" height="104" as="geometry" />
        </mxCell>
        <mxCell id="BVFIFrkS2k0CyckL_QwM-34" value="1,*" style="text;strokeColor=none;align=center;fillColor=none;html=1;verticalAlign=middle;whiteSpace=wrap;rounded=0;rotation=0;" parent="BVFIFrkS2k0CyckL_QwM-1" vertex="1">
          <mxGeometry x="756" y="490" width="60" height="30" as="geometry" />
        </mxCell>
        <mxCell id="UmLVYEv9rNojV646plMk-17" value="Subscription" style="swimlane;fontStyle=0;childLayout=stackLayout;horizontal=1;startSize=26;fillColor=none;horizontalStack=0;resizeParent=1;resizeParentMax=0;resizeLast=0;collapsible=1;marginBottom=0;whiteSpace=wrap;html=1;" vertex="1" parent="BVFIFrkS2k0CyckL_QwM-1">
          <mxGeometry x="910" y="380" width="180" height="150" as="geometry" />
        </mxCell>
        <mxCell id="UmLVYEv9rNojV646plMk-18" value="&lt;li&gt;&lt;code&gt;id: int&lt;/code&gt;&lt;/li&gt;&lt;li&gt;&lt;code&gt;subscriptionType: String&lt;/code&gt;&amp;nbsp;&lt;/li&gt;&lt;li&gt;&lt;code&gt;startDate: DateTime&lt;/code&gt;&lt;/li&gt;&lt;li&gt;&lt;code&gt;endDate: DateTime&lt;/code&gt;&lt;/li&gt;&lt;li&gt;&lt;code&gt;status: String&lt;/code&gt;&amp;nbsp;&lt;/li&gt;" style="text;strokeColor=none;fillColor=none;align=left;verticalAlign=top;spacingLeft=4;spacingRight=4;overflow=hidden;rotatable=0;points=[[0,0.5],[1,0.5]];portConstraint=eastwest;whiteSpace=wrap;html=1;" vertex="1" parent="UmLVYEv9rNojV646plMk-17">
          <mxGeometry y="26" width="180" height="124" as="geometry" />
        </mxCell>
        <mxCell id="UmLVYEv9rNojV646plMk-21" value="Validator" style="swimlane;fontStyle=0;childLayout=stackLayout;horizontal=1;startSize=26;fillColor=none;horizontalStack=0;resizeParent=1;resizeParentMax=0;resizeLast=0;collapsible=1;marginBottom=0;whiteSpace=wrap;html=1;" vertex="1" parent="BVFIFrkS2k0CyckL_QwM-1">
          <mxGeometry x="578" y="749" width="180" height="110" as="geometry" />
        </mxCell>
        <mxCell id="UmLVYEv9rNojV646plMk-22" value="&lt;li&gt;&lt;code&gt;id: int&lt;/code&gt;&lt;/li&gt;&lt;li&gt;&lt;code&gt;driverId: int&lt;/code&gt;&amp;nbsp;&lt;/li&gt;&lt;li&gt;&lt;code&gt;vehicleDocumentsValid: Boolean&lt;/code&gt;&lt;/li&gt;&lt;li&gt;&lt;code&gt;licenseValid: Boolean&lt;/code&gt;&lt;/li&gt;" style="text;strokeColor=none;fillColor=none;align=left;verticalAlign=top;spacingLeft=4;spacingRight=4;overflow=hidden;rotatable=0;points=[[0,0.5],[1,0.5]];portConstraint=eastwest;whiteSpace=wrap;html=1;" vertex="1" parent="UmLVYEv9rNojV646plMk-21">
          <mxGeometry y="26" width="180" height="84" as="geometry" />
        </mxCell>
        <mxCell id="UmLVYEv9rNojV646plMk-25" value="CostCalculator" style="swimlane;fontStyle=0;childLayout=stackLayout;horizontal=1;startSize=26;fillColor=none;horizontalStack=0;resizeParent=1;resizeParentMax=0;resizeLast=0;collapsible=1;marginBottom=0;whiteSpace=wrap;html=1;" vertex="1" parent="BVFIFrkS2k0CyckL_QwM-1">
          <mxGeometry x="224" y="1153" width="140" height="140" as="geometry" />
        </mxCell>
        <mxCell id="UmLVYEv9rNojV646plMk-26" value="&lt;li&gt;&lt;code&gt;id: int&lt;/code&gt;&lt;/li&gt;&lt;li&gt;&lt;code&gt;baseFare: float&lt;/code&gt;&lt;/li&gt;&lt;li&gt;&lt;code&gt;pricePerKm: float&lt;/code&gt;&lt;/li&gt;&lt;li&gt;&lt;code&gt;pricePerMinute: float&lt;/code&gt;&lt;/li&gt;&lt;li&gt;&lt;code&gt;surgeMultiplier: float&lt;/code&gt;&lt;/li&gt;" style="text;strokeColor=none;fillColor=none;align=left;verticalAlign=top;spacingLeft=4;spacingRight=4;overflow=hidden;rotatable=0;points=[[0,0.5],[1,0.5]];portConstraint=eastwest;whiteSpace=wrap;html=1;" vertex="1" parent="UmLVYEv9rNojV646plMk-25">
          <mxGeometry y="26" width="140" height="114" as="geometry" />
        </mxCell>
        <mxCell id="UmLVYEv9rNojV646plMk-29" value="Admin" style="swimlane;fontStyle=0;childLayout=stackLayout;horizontal=1;startSize=26;fillColor=none;horizontalStack=0;resizeParent=1;resizeParentMax=0;resizeLast=0;collapsible=1;marginBottom=0;whiteSpace=wrap;html=1;" vertex="1" parent="BVFIFrkS2k0CyckL_QwM-1">
          <mxGeometry x="84" y="267" width="140" height="80" as="geometry" />
        </mxCell>
        <mxCell id="UmLVYEv9rNojV646plMk-30" value="&lt;li&gt;&lt;code&gt;role: String&lt;/code&gt;&amp;nbsp;&lt;/li&gt;&lt;li&gt;&lt;code&gt;permissions: List&amp;lt;String&amp;gt;&lt;/code&gt;&lt;/li&gt;" style="text;strokeColor=none;fillColor=none;align=left;verticalAlign=top;spacingLeft=4;spacingRight=4;overflow=hidden;rotatable=0;points=[[0,0.5],[1,0.5]];portConstraint=eastwest;whiteSpace=wrap;html=1;" vertex="1" parent="UmLVYEv9rNojV646plMk-29">
          <mxGeometry y="26" width="140" height="54" as="geometry" />
        </mxCell>
        <mxCell id="UmLVYEv9rNojV646plMk-33" value="SuperAdmin" style="swimlane;fontStyle=0;childLayout=stackLayout;horizontal=1;startSize=26;fillColor=none;horizontalStack=0;resizeParent=1;resizeParentMax=0;resizeLast=0;collapsible=1;marginBottom=0;whiteSpace=wrap;html=1;" vertex="1" parent="BVFIFrkS2k0CyckL_QwM-1">
          <mxGeometry x="75" y="413" width="170" height="70" as="geometry" />
        </mxCell>
        <mxCell id="UmLVYEv9rNojV646plMk-34" value="canCreateAdmin: Boolean" style="text;strokeColor=none;fillColor=none;align=left;verticalAlign=top;spacingLeft=4;spacingRight=4;overflow=hidden;rotatable=0;points=[[0,0.5],[1,0.5]];portConstraint=eastwest;whiteSpace=wrap;html=1;" vertex="1" parent="UmLVYEv9rNojV646plMk-33">
          <mxGeometry y="26" width="170" height="44" as="geometry" />
        </mxCell>
        <mxCell id="UmLVYEv9rNojV646plMk-37" value="Localisable" style="swimlane;fontStyle=0;childLayout=stackLayout;horizontal=1;startSize=26;fillColor=none;horizontalStack=0;resizeParent=1;resizeParentMax=0;resizeLast=0;collapsible=1;marginBottom=0;whiteSpace=wrap;html=1;" vertex="1" parent="BVFIFrkS2k0CyckL_QwM-1">
          <mxGeometry x="115" y="589" width="140" height="90" as="geometry" />
        </mxCell>
        <mxCell id="UmLVYEv9rNojV646plMk-38" value="&lt;li&gt;&lt;code&gt;location: String&lt;/code&gt;&lt;/li&gt;&lt;li&gt;&lt;code&gt;latitude: float&lt;/code&gt;&lt;/li&gt;&lt;li&gt;&lt;code&gt;longitude: float&lt;/code&gt;&lt;/li&gt;" style="text;strokeColor=none;fillColor=none;align=left;verticalAlign=top;spacingLeft=4;spacingRight=4;overflow=hidden;rotatable=0;points=[[0,0.5],[1,0.5]];portConstraint=eastwest;whiteSpace=wrap;html=1;" vertex="1" parent="UmLVYEv9rNojV646plMk-37">
          <mxGeometry y="26" width="140" height="64" as="geometry" />
        </mxCell>
        <mxCell id="UmLVYEv9rNojV646plMk-42" value="Place" style="swimlane;fontStyle=0;childLayout=stackLayout;horizontal=1;startSize=26;fillColor=none;horizontalStack=0;resizeParent=1;resizeParentMax=0;resizeLast=0;collapsible=1;marginBottom=0;whiteSpace=wrap;html=1;" vertex="1" parent="BVFIFrkS2k0CyckL_QwM-1">
          <mxGeometry x="30" y="761" width="140" height="120" as="geometry" />
        </mxCell>
        <mxCell id="UmLVYEv9rNojV646plMk-43" value="&lt;li&gt;&lt;code&gt;id: int&lt;/code&gt;&lt;/li&gt;&lt;li&gt;&lt;code&gt;name: String&lt;/code&gt;&lt;/li&gt;&lt;li&gt;&lt;code&gt;latitude: float&lt;/code&gt;&lt;/li&gt;&lt;li&gt;&lt;code&gt;longitude: float&lt;/code&gt;&lt;/li&gt;&lt;li&gt;&lt;code&gt;address: String&lt;/code&gt;&lt;/li&gt;" style="text;strokeColor=none;fillColor=none;align=left;verticalAlign=top;spacingLeft=4;spacingRight=4;overflow=hidden;rotatable=0;points=[[0,0.5],[1,0.5]];portConstraint=eastwest;whiteSpace=wrap;html=1;" vertex="1" parent="UmLVYEv9rNojV646plMk-42">
          <mxGeometry y="26" width="140" height="94" as="geometry" />
        </mxCell>
        <mxCell id="UmLVYEv9rNojV646plMk-46" value="Itinerary" style="swimlane;fontStyle=0;childLayout=stackLayout;horizontal=1;startSize=26;fillColor=none;horizontalStack=0;resizeParent=1;resizeParentMax=0;resizeLast=0;collapsible=1;marginBottom=0;whiteSpace=wrap;html=1;" vertex="1" parent="BVFIFrkS2k0CyckL_QwM-1">
          <mxGeometry x="210" y="762" width="140" height="200" as="geometry" />
        </mxCell>
        <mxCell id="UmLVYEv9rNojV646plMk-47" value="&lt;li&gt;&lt;code&gt;id: int&lt;/code&gt;&lt;/li&gt;&lt;li&gt;&lt;code&gt;departure: String&lt;/code&gt;&lt;/li&gt;&lt;li&gt;&lt;code&gt;destination: String&lt;/code&gt;&lt;/li&gt;&lt;li&gt;&lt;code&gt;estimatedTime: Duration&lt;/code&gt;&lt;/li&gt;&lt;li&gt;&lt;code&gt;distance: float&lt;/code&gt;&lt;/li&gt;&lt;li&gt;&lt;code&gt;createdAt: DateTime&lt;/code&gt;&lt;/li&gt;&lt;li&gt;&lt;code&gt;updatedAt: DateTime&lt;/code&gt;&lt;/li&gt;" style="text;strokeColor=none;fillColor=none;align=left;verticalAlign=top;spacingLeft=4;spacingRight=4;overflow=hidden;rotatable=0;points=[[0,0.5],[1,0.5]];portConstraint=eastwest;whiteSpace=wrap;html=1;" vertex="1" parent="UmLVYEv9rNojV646plMk-46">
          <mxGeometry y="26" width="140" height="174" as="geometry" />
        </mxCell>
      </root>
    </mxGraphModel>
  </diagram>
  <diagram id="dTgRtQmtBucVEARpOTl8" name="Deployment Diagram">
    <mxGraphModel dx="880" dy="1554" grid="1" gridSize="10" guides="1" tooltips="1" connect="1" arrows="1" fold="1" page="1" pageScale="1" pageWidth="850" pageHeight="1100" math="0" shadow="0">
      <root>
        <mxCell id="0" />
        <mxCell id="1" parent="0" />
        <mxCell id="8UO63weISZY2FHaxDVUl-1" value="Serveur de donnÃ©es: ScyllaDB" style="verticalAlign=top;align=left;spacingTop=8;spacingLeft=2;spacingRight=12;shape=cube;size=10;direction=south;fontStyle=4;html=1;whiteSpace=wrap;" parent="1" vertex="1">
          <mxGeometry x="40" y="120" width="180" height="80" as="geometry" />
        </mxCell>
        <mxCell id="8UO63weISZY2FHaxDVUl-2" value="Serveur d&#39;application" style="verticalAlign=top;align=left;spacingTop=8;spacingLeft=2;spacingRight=12;shape=cube;size=10;direction=south;fontStyle=4;html=1;whiteSpace=wrap;" parent="1" vertex="1">
          <mxGeometry x="300" y="120" width="180" height="160" as="geometry" />
        </mxCell>
        <mxCell id="8UO63weISZY2FHaxDVUl-3" value="Serveur web" style="verticalAlign=top;align=left;spacingTop=8;spacingLeft=2;spacingRight=12;shape=cube;size=10;direction=south;fontStyle=4;html=1;whiteSpace=wrap;" parent="1" vertex="1">
          <mxGeometry x="560" y="120" width="180" height="160" as="geometry" />
        </mxCell>
        <mxCell id="8UO63weISZY2FHaxDVUl-4" value="Serveur de OpenStreetMap" style="verticalAlign=top;align=left;spacingTop=8;spacingLeft=2;spacingRight=12;shape=cube;size=10;direction=south;fontStyle=4;html=1;whiteSpace=wrap;" parent="1" vertex="1">
          <mxGeometry x="430" y="-10" width="180" height="70" as="geometry" />
        </mxCell>
        <mxCell id="8UO63weISZY2FHaxDVUl-5" value="Serveur de gÃ©olocalisation" style="verticalAlign=top;align=left;spacingTop=8;spacingLeft=2;spacingRight=12;shape=cube;size=10;direction=south;fontStyle=4;html=1;whiteSpace=wrap;" parent="1" vertex="1">
          <mxGeometry x="750" y="-10" width="180" height="70" as="geometry" />
        </mxCell>
        <mxCell id="8UO63weISZY2FHaxDVUl-6" value="Code frontend" style="shape=module;align=left;spacingLeft=20;align=center;verticalAlign=top;whiteSpace=wrap;html=1;" parent="1" vertex="1">
          <mxGeometry x="590" y="160" width="100" height="50" as="geometry" />
        </mxCell>
        <mxCell id="8UO63weISZY2FHaxDVUl-7" value="BibliothÃ¨ques Next" style="shape=module;align=left;spacingLeft=20;align=center;verticalAlign=top;whiteSpace=wrap;html=1;" parent="1" vertex="1">
          <mxGeometry x="590" y="220" width="100" height="50" as="geometry" />
        </mxCell>
        <mxCell id="8UO63weISZY2FHaxDVUl-8" value="" style="endArrow=classic;startArrow=classic;html=1;rounded=0;entryX=0.313;entryY=1;entryDx=0;entryDy=0;entryPerimeter=0;" parent="1" edge="1">
          <mxGeometry width="50" height="50" relative="1" as="geometry">
            <mxPoint x="220" y="152" as="sourcePoint" />
            <mxPoint x="300" y="152.07999999999993" as="targetPoint" />
          </mxGeometry>
        </mxCell>
        <mxCell id="8UO63weISZY2FHaxDVUl-9" value="HTTP" style="text;html=1;align=center;verticalAlign=middle;resizable=0;points=[];autosize=1;strokeColor=none;fillColor=none;" parent="1" vertex="1">
          <mxGeometry x="235" y="127" width="50" height="30" as="geometry" />
        </mxCell>
        <mxCell id="8UO63weISZY2FHaxDVUl-10" value="" style="endArrow=classic;startArrow=classic;html=1;rounded=0;entryX=0.42;entryY=1.002;entryDx=0;entryDy=0;entryPerimeter=0;" parent="1" edge="1">
          <mxGeometry width="50" height="50" relative="1" as="geometry">
            <mxPoint x="480.0000000000002" y="152" as="sourcePoint" />
            <mxPoint x="560.0000000000002" y="152" as="targetPoint" />
          </mxGeometry>
        </mxCell>
        <mxCell id="8UO63weISZY2FHaxDVUl-11" value="HTTP" style="text;html=1;align=center;verticalAlign=middle;resizable=0;points=[];autosize=1;strokeColor=none;fillColor=none;" parent="1" vertex="1">
          <mxGeometry x="495" y="127" width="50" height="30" as="geometry" />
        </mxCell>
        <mxCell id="8UO63weISZY2FHaxDVUl-12" value="" style="endArrow=classic;startArrow=classic;html=1;rounded=0;entryX=-0.005;entryY=0.74;entryDx=0;entryDy=0;entryPerimeter=0;exitX=1.013;exitY=0.387;exitDx=0;exitDy=0;exitPerimeter=0;" parent="1" edge="1">
          <mxGeometry width="50" height="50" relative="1" as="geometry">
            <mxPoint x="545.0000000000002" y="62.35999999999967" as="sourcePoint" />
            <mxPoint x="611.46" y="120" as="targetPoint" />
          </mxGeometry>
        </mxCell>
        <mxCell id="8UO63weISZY2FHaxDVUl-13" value="HTTP" style="text;html=1;align=center;verticalAlign=middle;resizable=0;points=[];autosize=1;strokeColor=none;fillColor=none;" parent="1" vertex="1">
          <mxGeometry x="567.66" y="70.8" width="50" height="30" as="geometry" />
        </mxCell>
        <mxCell id="8UO63weISZY2FHaxDVUl-14" value="" style="endArrow=classic;startArrow=classic;html=1;rounded=0;exitX=0.22;exitY=0.98;exitDx=0;exitDy=0;exitPerimeter=0;entryX=1.046;entryY=0.787;entryDx=0;entryDy=0;entryPerimeter=0;" parent="1" source="8UO63weISZY2FHaxDVUl-15" target="8UO63weISZY2FHaxDVUl-5" edge="1">
          <mxGeometry width="50" height="50" relative="1" as="geometry">
            <mxPoint x="680" y="114" as="sourcePoint" />
            <mxPoint x="790" y="70" as="targetPoint" />
          </mxGeometry>
        </mxCell>
        <mxCell id="8UO63weISZY2FHaxDVUl-15" value="HTTP" style="text;html=1;align=center;verticalAlign=middle;resizable=0;points=[];autosize=1;strokeColor=none;fillColor=none;" parent="1" vertex="1">
          <mxGeometry x="700" y="90" width="50" height="30" as="geometry" />
        </mxCell>
        <mxCell id="8UO63weISZY2FHaxDVUl-16" value="Code backend" style="shape=module;align=left;spacingLeft=20;align=center;verticalAlign=top;whiteSpace=wrap;html=1;" parent="1" vertex="1">
          <mxGeometry x="331" y="160" width="100" height="50" as="geometry" />
        </mxCell>
        <mxCell id="8UO63weISZY2FHaxDVUl-17" value="BibliothÃ¨ques Spring" style="shape=module;align=left;spacingLeft=20;align=center;verticalAlign=top;whiteSpace=wrap;html=1;" parent="1" vertex="1">
          <mxGeometry x="331" y="220" width="100" height="50" as="geometry" />
        </mxCell>
        <mxCell id="8UO63weISZY2FHaxDVUl-18" value="PÃ©riphÃ©rique Final: Navigateur web" style="verticalAlign=top;align=left;spacingTop=8;spacingLeft=2;spacingRight=12;shape=cube;size=10;direction=south;fontStyle=4;html=1;whiteSpace=wrap;" parent="1" vertex="1">
          <mxGeometry x="540" y="358" width="220" height="62" as="geometry" />
        </mxCell>
        <mxCell id="8UO63weISZY2FHaxDVUl-19" value="" style="endArrow=classic;startArrow=classic;html=1;rounded=0;entryX=0.01;entryY=0.527;entryDx=0;entryDy=0;entryPerimeter=0;exitX=0;exitY=0;exitDx=160;exitDy=95;exitPerimeter=0;" parent="1" source="8UO63weISZY2FHaxDVUl-3" target="8UO63weISZY2FHaxDVUl-18" edge="1">
          <mxGeometry width="50" height="50" relative="1" as="geometry">
            <mxPoint x="617.66" y="310" as="sourcePoint" />
            <mxPoint x="697.66" y="310" as="targetPoint" />
          </mxGeometry>
        </mxCell>
        <mxCell id="8UO63weISZY2FHaxDVUl-20" value="HTTP" style="text;html=1;align=center;verticalAlign=middle;resizable=0;points=[];autosize=1;strokeColor=none;fillColor=none;" parent="1" vertex="1">
          <mxGeometry x="641" y="303" width="50" height="30" as="geometry" />
        </mxCell>
        <mxCell id="LUs2CdxLW_aRhNrRG217-1" value="" style="endArrow=classic;startArrow=classic;html=1;rounded=0;exitX=0.22;exitY=0.98;exitDx=0;exitDy=0;exitPerimeter=0;entryX=1.046;entryY=0.787;entryDx=0;entryDy=0;entryPerimeter=0;" parent="1" edge="1">
          <mxGeometry width="50" height="50" relative="1" as="geometry">
            <mxPoint x="403" y="120" as="sourcePoint" />
            <mxPoint x="480" y="64" as="targetPoint" />
          </mxGeometry>
        </mxCell>
        <mxCell id="LUs2CdxLW_aRhNrRG217-2" value="HTTP" style="text;html=1;align=center;verticalAlign=middle;resizable=0;points=[];autosize=1;strokeColor=none;fillColor=none;" parent="1" vertex="1">
          <mxGeometry x="395" y="69" width="50" height="30" as="geometry" />
        </mxCell>
      </root>
    </mxGraphModel>
  </diagram>
</mxfile>
